{
	"patcher" : 	{
		"fileversion" : 1,
		"appversion" : 		{
			"major" : 8,
			"minor" : 3,
			"revision" : 2,
			"architecture" : "x64",
			"modernui" : 1
		}
,
		"classnamespace" : "box",
		"rect" : [ 333.0, 116.0, 928.0, 686.0 ],
		"bglocked" : 0,
		"openinpresentation" : 1,
		"default_fontsize" : 12.0,
		"default_fontface" : 0,
		"default_fontname" : "Arial",
		"gridonopen" : 1,
		"gridsize" : [ 15.0, 15.0 ],
		"gridsnaponopen" : 1,
		"objectsnaponopen" : 1,
		"statusbarvisible" : 2,
		"toolbarvisible" : 1,
		"lefttoolbarpinned" : 0,
		"toptoolbarpinned" : 0,
		"righttoolbarpinned" : 0,
		"bottomtoolbarpinned" : 0,
		"toolbars_unpinned_last_save" : 0,
		"tallnewobj" : 0,
		"boxanimatetime" : 200,
		"enablehscroll" : 1,
		"enablevscroll" : 1,
		"devicewidth" : 0.0,
		"description" : "",
		"digest" : "",
		"tags" : "",
		"style" : "",
		"subpatcher_template" : "",
		"assistshowspatchername" : 0,
		"boxes" : [ 			{
				"box" : 				{
					"bubblepoint" : 1.0,
					"bubbletextmargin" : 3,
					"fontname" : "Consolas",
					"fontsize" : 18.0,
					"id" : "obj-461",
					"maxclass" : "comment",
					"numinlets" : 1,
					"numoutlets" : 0,
					"patching_rect" : [ 513.847954351189173, 353.166697303453816, 49.723755122650118, 28.0 ],
					"presentation" : 1,
					"presentation_rect" : [ 604.666671435038324, 92.333328564961789, 49.0, 28.0 ],
					"text" : "R",
					"textcolor" : [ 0.815686274509804, 0.815686274509804, 0.815686274509804, 1.0 ],
					"textjustification" : 1
				}

			}
, 			{
				"box" : 				{
					"bubblepoint" : 1.0,
					"bubbletextmargin" : 3,
					"fontname" : "Consolas",
					"fontsize" : 18.0,
					"id" : "obj-253",
					"maxclass" : "comment",
					"numinlets" : 1,
					"numoutlets" : 0,
					"patching_rect" : [ 374.356509162733971, 353.166697303453816, 71.0, 28.0 ],
					"presentation" : 1,
					"presentation_rect" : [ 537.883335610230915, 92.333328564961789, 49.0, 28.0 ],
					"text" : "S",
					"textcolor" : [ 0.815686274509804, 0.815686274509804, 0.815686274509804, 1.0 ],
					"textjustification" : 1
				}

			}
, 			{
				"box" : 				{
					"bubblepoint" : 1.0,
					"bubbletextmargin" : 3,
					"fontname" : "Consolas",
					"fontsize" : 18.0,
					"id" : "obj-252",
					"maxclass" : "comment",
					"numinlets" : 1,
					"numoutlets" : 0,
					"patching_rect" : [ 513.847954351189173, 258.633369644482741, 49.723755122650118, 28.0 ],
					"presentation" : 1,
					"presentation_rect" : [ 268.666671435038324, 90.999999999999886, 49.0, 28.0 ],
					"text" : "R",
					"textcolor" : [ 0.815686274509804, 0.815686274509804, 0.815686274509804, 1.0 ],
					"textjustification" : 1
				}

			}
, 			{
				"box" : 				{
					"bubblepoint" : 1.0,
					"bubbletextmargin" : 3,
					"fontname" : "Consolas",
					"fontsize" : 18.0,
					"id" : "obj-251",
					"maxclass" : "comment",
					"numinlets" : 1,
					"numoutlets" : 0,
					"patching_rect" : [ 374.356509162733971, 254.166697303453816, 66.0, 28.0 ],
					"presentation" : 1,
					"presentation_rect" : [ 201.883335610230915, 90.999999999999886, 49.0, 28.0 ],
					"text" : "S",
					"textcolor" : [ 0.815686274509804, 0.815686274509804, 0.815686274509804, 1.0 ],
					"textjustification" : 1
				}

			}
, 			{
				"box" : 				{
					"bubblepoint" : 1.0,
					"bubbletextmargin" : 3,
					"fontname" : "Consolas",
					"fontsize" : 18.0,
					"id" : "obj-250",
					"maxclass" : "comment",
					"numinlets" : 1,
					"numoutlets" : 0,
					"patching_rect" : [ 244.297580113723313, 258.633369644482741, 67.0, 28.0 ],
					"presentation" : 1,
					"presentation_rect" : [ 135.883335610230915, 90.999999999999886, 49.0, 28.0 ],
					"text" : "D",
					"textcolor" : [ 0.815686274509804, 0.815686274509804, 0.815686274509804, 1.0 ],
					"textjustification" : 1
				}

			}
, 			{
				"box" : 				{
					"bubblepoint" : 1.0,
					"bubbletextmargin" : 3,
					"fontname" : "Consolas",
					"fontsize" : 18.0,
					"id" : "obj-249",
					"maxclass" : "comment",
					"numinlets" : 1,
					"numoutlets" : 0,
					"patching_rect" : [ 244.297580113723313, 348.166697303453816, 64.928571428571786, 28.0 ],
					"presentation" : 1,
					"presentation_rect" : [ 471.883335610230915, 92.333328564961789, 49.0, 28.0 ],
					"text" : "D",
					"textcolor" : [ 0.815686274509804, 0.815686274509804, 0.815686274509804, 1.0 ],
					"textjustification" : 1
				}

			}
, 			{
				"box" : 				{
					"bubblepoint" : 1.0,
					"bubbletextmargin" : 3,
					"fontname" : "Consolas",
					"fontsize" : 18.0,
					"id" : "obj-248",
					"maxclass" : "comment",
					"numinlets" : 1,
					"numoutlets" : 0,
					"patching_rect" : [ 117.894007729987152, 258.633369644482741, 61.0, 28.0 ],
					"presentation" : 1,
					"presentation_rect" : [ 70.166671435038324, 90.999999999999886, 49.0, 28.0 ],
					"text" : "A",
					"textcolor" : [ 0.815686274509804, 0.815686274509804, 0.815686274509804, 1.0 ],
					"textjustification" : 1
				}

			}
, 			{
				"box" : 				{
					"bubblepoint" : 1.0,
					"bubbletextmargin" : 3,
					"fontname" : "Consolas",
					"fontsize" : 18.0,
					"id" : "obj-106",
					"maxclass" : "comment",
					"numinlets" : 1,
					"numoutlets" : 0,
					"patching_rect" : [ 119.394007729987209, 353.166697303453816, 61.0, 28.0 ],
					"presentation" : 1,
					"presentation_rect" : [ 406.166671435038324, 92.333328564961789, 49.0, 28.0 ],
					"text" : "A",
					"textcolor" : [ 0.815686274509804, 0.815686274509804, 0.815686274509804, 1.0 ],
					"textjustification" : 1
				}

			}
, 			{
				"box" : 				{
					"id" : "obj-241",
					"items" : [ "CC", 0, ",", "CC", 1, ",", "CC", 2, ",", "CC", 3, ",", "CC", 4, ",", "CC", 5, ",", "CC", 6, ",", "CC", 7, ",", "CC", 8, ",", "CC", 9, ",", "CC", 10, ",", "CC", 11, ",", "CC", 12, ",", "CC", 13, ",", "CC", 14, ",", "CC", 15, ",", "CC", 16, ",", "CC", 17, ",", "CC", 18, ",", "CC", 19, ",", "CC", 20, ",", "CC", 21, ",", "CC", 22, ",", "CC", 23, ",", "CC", 24, ",", "CC", 25, ",", "CC", 26, ",", "CC", 27, ",", "CC", 28, ",", "CC", 29, ",", "CC", 30, ",", "CC", 31, ",", "CC", 32, ",", "CC", 33, ",", "CC", 34, ",", "CC", 35, ",", "CC", 36, ",", "CC", 37, ",", "CC", 38, ",", "CC", 39, ",", "CC", 40, ",", "CC", 41, ",", "CC", 42, ",", "CC", 43, ",", "CC", 44, ",", "CC", 45, ",", "CC", 46, ",", "CC", 47, ",", "CC", 48, ",", "CC", 49, ",", "CC", 50 ],
					"maxclass" : "umenu",
					"numinlets" : 1,
					"numoutlets" : 3,
					"outlettype" : [ "int", "", "" ],
					"parameter_enable" : 0,
					"patching_rect" : [ 501.469025696317431, 376.633369644482741, 64.0, 22.0 ],
					"pattrmode" : 1
				}

			}
, 			{
				"box" : 				{
					"id" : "obj-238",
					"items" : [ "CC", 0, ",", "CC", 1, ",", "CC", 2, ",", "CC", 3, ",", "CC", 4, ",", "CC", 5, ",", "CC", 6, ",", "CC", 7, ",", "CC", 8, ",", "CC", 9, ",", "CC", 10, ",", "CC", 11, ",", "CC", 12, ",", "CC", 13, ",", "CC", 14, ",", "CC", 15, ",", "CC", 16, ",", "CC", 17, ",", "CC", 18, ",", "CC", 19, ",", "CC", 20, ",", "CC", 21, ",", "CC", 22, ",", "CC", 23, ",", "CC", 24, ",", "CC", 25, ",", "CC", 26, ",", "CC", 27, ",", "CC", 28, ",", "CC", 29, ",", "CC", 30, ",", "CC", 31, ",", "CC", 32, ",", "CC", 33, ",", "CC", 34, ",", "CC", 35, ",", "CC", 36, ",", "CC", 37, ",", "CC", 38, ",", "CC", 39, ",", "CC", 40, ",", "CC", 41, ",", "CC", 42, ",", "CC", 43, ",", "CC", 44, ",", "CC", 45, ",", "CC", 46, ",", "CC", 47, ",", "CC", 48, ",", "CC", 49, ",", "CC", 50 ],
					"maxclass" : "umenu",
					"numinlets" : 1,
					"numoutlets" : 3,
					"outlettype" : [ "int", "", "" ],
					"parameter_enable" : 0,
					"patching_rect" : [ 374.356509162733971, 376.633369644482741, 64.0, 22.0 ],
					"pattrmode" : 1
				}

			}
, 			{
				"box" : 				{
					"id" : "obj-235",
					"items" : [ "CC", 0, ",", "CC", 1, ",", "CC", 2, ",", "CC", 3, ",", "CC", 4, ",", "CC", 5, ",", "CC", 6, ",", "CC", 7, ",", "CC", 8, ",", "CC", 9, ",", "CC", 10, ",", "CC", 11, ",", "CC", 12, ",", "CC", 13, ",", "CC", 14, ",", "CC", 15, ",", "CC", 16, ",", "CC", 17, ",", "CC", 18, ",", "CC", 19, ",", "CC", 20, ",", "CC", 21, ",", "CC", 22, ",", "CC", 23, ",", "CC", 24, ",", "CC", 25, ",", "CC", 26, ",", "CC", 27, ",", "CC", 28, ",", "CC", 29, ",", "CC", 30, ",", "CC", 31, ",", "CC", 32, ",", "CC", 33, ",", "CC", 34, ",", "CC", 35, ",", "CC", 36, ",", "CC", 37, ",", "CC", 38, ",", "CC", 39, ",", "CC", 40, ",", "CC", 41, ",", "CC", 42, ",", "CC", 43, ",", "CC", 44, ",", "CC", 45, ",", "CC", 46, ",", "CC", 47, ",", "CC", 48, ",", "CC", 49, ",", "CC", 50 ],
					"maxclass" : "umenu",
					"numinlets" : 1,
					"numoutlets" : 3,
					"outlettype" : [ "int", "", "" ],
					"parameter_enable" : 0,
					"patching_rect" : [ 244.297580113723313, 376.633369644482741, 64.0, 22.0 ],
					"pattrmode" : 1
				}

			}
, 			{
				"box" : 				{
					"id" : "obj-232",
					"items" : [ "CC", 0, ",", "CC", 1, ",", "CC", 2, ",", "CC", 3, ",", "CC", 4, ",", "CC", 5, ",", "CC", 6, ",", "CC", 7, ",", "CC", 8, ",", "CC", 9, ",", "CC", 10, ",", "CC", 11, ",", "CC", 12, ",", "CC", 13, ",", "CC", 14, ",", "CC", 15, ",", "CC", 16, ",", "CC", 17, ",", "CC", 18, ",", "CC", 19, ",", "CC", 20, ",", "CC", 21, ",", "CC", 22, ",", "CC", 23, ",", "CC", 24, ",", "CC", 25, ",", "CC", 26, ",", "CC", 27, ",", "CC", 28, ",", "CC", 29, ",", "CC", 30, ",", "CC", 31, ",", "CC", 32, ",", "CC", 33, ",", "CC", 34, ",", "CC", 35, ",", "CC", 36, ",", "CC", 37, ",", "CC", 38, ",", "CC", 39, ",", "CC", 40, ",", "CC", 41, ",", "CC", 42, ",", "CC", 43, ",", "CC", 44, ",", "CC", 45, ",", "CC", 46, ",", "CC", 47, ",", "CC", 48, ",", "CC", 49, ",", "CC", 50 ],
					"maxclass" : "umenu",
					"numinlets" : 1,
					"numoutlets" : 3,
					"outlettype" : [ "int", "", "" ],
					"parameter_enable" : 0,
					"patching_rect" : [ 117.894007729987152, 376.633369644482741, 64.0, 22.0 ],
					"pattrmode" : 1
				}

			}
, 			{
				"box" : 				{
					"id" : "obj-228",
					"items" : [ "CC", 0, ",", "CC", 1, ",", "CC", 2, ",", "CC", 3, ",", "CC", 4, ",", "CC", 5, ",", "CC", 6, ",", "CC", 7, ",", "CC", 8, ",", "CC", 9, ",", "CC", 10, ",", "CC", 11, ",", "CC", 12, ",", "CC", 13, ",", "CC", 14, ",", "CC", 15, ",", "CC", 16, ",", "CC", 17, ",", "CC", 18, ",", "CC", 19, ",", "CC", 20, ",", "CC", 21, ",", "CC", 22, ",", "CC", 23, ",", "CC", 24, ",", "CC", 25, ",", "CC", 26, ",", "CC", 27, ",", "CC", 28, ",", "CC", 29, ",", "CC", 30, ",", "CC", 31, ",", "CC", 32, ",", "CC", 33, ",", "CC", 34, ",", "CC", 35, ",", "CC", 36, ",", "CC", 37, ",", "CC", 38, ",", "CC", 39, ",", "CC", 40, ",", "CC", 41, ",", "CC", 42, ",", "CC", 43, ",", "CC", 44, ",", "CC", 45, ",", "CC", 46, ",", "CC", 47, ",", "CC", 48, ",", "CC", 49, ",", "CC", 50 ],
					"maxclass" : "umenu",
					"numinlets" : 1,
					"numoutlets" : 3,
					"outlettype" : [ "int", "", "" ],
					"parameter_enable" : 0,
					"patching_rect" : [ 501.469025696317431, 277.633369644482741, 64.0, 22.0 ],
					"pattrmode" : 1
				}

			}
, 			{
				"box" : 				{
					"id" : "obj-225",
					"items" : [ "CC", 0, ",", "CC", 1, ",", "CC", 2, ",", "CC", 3, ",", "CC", 4, ",", "CC", 5, ",", "CC", 6, ",", "CC", 7, ",", "CC", 8, ",", "CC", 9, ",", "CC", 10, ",", "CC", 11, ",", "CC", 12, ",", "CC", 13, ",", "CC", 14, ",", "CC", 15, ",", "CC", 16, ",", "CC", 17, ",", "CC", 18, ",", "CC", 19, ",", "CC", 20, ",", "CC", 21, ",", "CC", 22, ",", "CC", 23, ",", "CC", 24, ",", "CC", 25, ",", "CC", 26, ",", "CC", 27, ",", "CC", 28, ",", "CC", 29, ",", "CC", 30, ",", "CC", 31, ",", "CC", 32, ",", "CC", 33, ",", "CC", 34, ",", "CC", 35, ",", "CC", 36, ",", "CC", 37, ",", "CC", 38, ",", "CC", 39, ",", "CC", 40, ",", "CC", 41, ",", "CC", 42, ",", "CC", 43, ",", "CC", 44, ",", "CC", 45, ",", "CC", 46, ",", "CC", 47, ",", "CC", 48, ",", "CC", 49, ",", "CC", 50 ],
					"maxclass" : "umenu",
					"numinlets" : 1,
					"numoutlets" : 3,
					"outlettype" : [ "int", "", "" ],
					"parameter_enable" : 0,
					"patching_rect" : [ 374.356509162733971, 277.633369644482741, 64.0, 22.0 ],
					"pattrmode" : 1
				}

			}
, 			{
				"box" : 				{
					"id" : "obj-222",
					"items" : [ "CC", 0, ",", "CC", 1, ",", "CC", 2, ",", "CC", 3, ",", "CC", 4, ",", "CC", 5, ",", "CC", 6, ",", "CC", 7, ",", "CC", 8, ",", "CC", 9, ",", "CC", 10, ",", "CC", 11, ",", "CC", 12, ",", "CC", 13, ",", "CC", 14, ",", "CC", 15, ",", "CC", 16, ",", "CC", 17, ",", "CC", 18, ",", "CC", 19, ",", "CC", 20, ",", "CC", 21, ",", "CC", 22, ",", "CC", 23, ",", "CC", 24, ",", "CC", 25, ",", "CC", 26, ",", "CC", 27, ",", "CC", 28, ",", "CC", 29, ",", "CC", 30, ",", "CC", 31, ",", "CC", 32, ",", "CC", 33, ",", "CC", 34, ",", "CC", 35, ",", "CC", 36, ",", "CC", 37, ",", "CC", 38, ",", "CC", 39, ",", "CC", 40, ",", "CC", 41, ",", "CC", 42, ",", "CC", 43, ",", "CC", 44, ",", "CC", 45, ",", "CC", 46, ",", "CC", 47, ",", "CC", 48, ",", "CC", 49, ",", "CC", 50 ],
					"maxclass" : "umenu",
					"numinlets" : 1,
					"numoutlets" : 3,
					"outlettype" : [ "int", "", "" ],
					"parameter_enable" : 0,
					"patching_rect" : [ 241.206508525957531, 282.633369644482741, 64.0, 22.0 ],
					"pattrmode" : 1
				}

			}
, 			{
				"box" : 				{
					"id" : "obj-201",
					"items" : [ "CC", 0, ",", "CC", 1, ",", "CC", 2, ",", "CC", 3, ",", "CC", 4, ",", "CC", 5, ",", "CC", 6, ",", "CC", 7, ",", "CC", 8, ",", "CC", 9, ",", "CC", 10, ",", "CC", 11, ",", "CC", 12, ",", "CC", 13, ",", "CC", 14, ",", "CC", 15, ",", "CC", 16, ",", "CC", 17, ",", "CC", 18, ",", "CC", 19, ",", "CC", 20, ",", "CC", 21, ",", "CC", 22, ",", "CC", 23, ",", "CC", 24, ",", "CC", 25, ",", "CC", 26, ",", "CC", 27, ",", "CC", 28, ",", "CC", 29, ",", "CC", 30, ",", "CC", 31, ",", "CC", 32, ",", "CC", 33, ",", "CC", 34, ",", "CC", 35, ",", "CC", 36, ",", "CC", 37, ",", "CC", 38, ",", "CC", 39, ",", "CC", 40, ",", "CC", 41, ",", "CC", 42, ",", "CC", 43, ",", "CC", 44, ",", "CC", 45, ",", "CC", 46, ",", "CC", 47, ",", "CC", 48, ",", "CC", 49, ",", "CC", 50 ],
					"maxclass" : "umenu",
					"numinlets" : 1,
					"numoutlets" : 3,
					"outlettype" : [ "int", "", "" ],
					"parameter_enable" : 0,
					"patching_rect" : [ 117.894007729987152, 282.633369644482741, 64.0, 22.0 ],
					"pattrmode" : 1
				}

			}
, 			{
				"box" : 				{
					"id" : "obj-78",
					"maxclass" : "newobj",
					"numinlets" : 2,
					"numoutlets" : 1,
					"outlettype" : [ "" ],
					"patching_rect" : [ 448.869008685151812, 405.633369644482741, 61.0, 22.0 ],
					"text" : "dialCC 45"
				}

			}
, 			{
				"box" : 				{
					"id" : "obj-80",
					"maxclass" : "newobj",
					"numinlets" : 2,
					"numoutlets" : 1,
					"outlettype" : [ "" ],
					"patching_rect" : [ 320.869008685151755, 405.633369644482741, 61.0, 22.0 ],
					"text" : "dialCC 44"
				}

			}
, 			{
				"box" : 				{
					"id" : "obj-82",
					"maxclass" : "newobj",
					"numinlets" : 2,
					"numoutlets" : 1,
					"outlettype" : [ "" ],
					"patching_rect" : [ 192.869008685151755, 405.633369644482741, 61.0, 22.0 ],
					"text" : "dialCC 43"
				}

			}
, 			{
				"box" : 				{
					"id" : "obj-84",
					"maxclass" : "newobj",
					"numinlets" : 2,
					"numoutlets" : 1,
					"outlettype" : [ "" ],
					"patching_rect" : [ 64.869008685151755, 405.633369644482741, 61.0, 22.0 ],
					"text" : "dialCC 42"
				}

			}
, 			{
				"box" : 				{
					"id" : "obj-4",
					"maxclass" : "newobj",
					"numinlets" : 2,
					"numoutlets" : 1,
					"outlettype" : [ "" ],
					"patching_rect" : [ 448.869008685151812, 311.633369644482741, 61.0, 22.0 ],
					"text" : "dialCC 41"
				}

			}
, 			{
				"box" : 				{
					"id" : "obj-27",
					"maxclass" : "newobj",
					"numinlets" : 2,
					"numoutlets" : 1,
					"outlettype" : [ "" ],
					"patching_rect" : [ 320.869008685151755, 311.633369644482741, 61.0, 22.0 ],
					"text" : "dialCC 40"
				}

			}
, 			{
				"box" : 				{
					"id" : "obj-61",
					"maxclass" : "newobj",
					"numinlets" : 2,
					"numoutlets" : 1,
					"outlettype" : [ "" ],
					"patching_rect" : [ 192.869008685151755, 311.633369644482741, 61.0, 22.0 ],
					"text" : "dialCC 39"
				}

			}
, 			{
				"box" : 				{
					"bgcolor" : [ 0.231372549019608, 0.231372549019608, 0.231372549019608, 1.0 ],
					"degrees" : 268,
					"id" : "obj-63",
					"maxclass" : "dial",
					"needlecolor" : [ 0.290196078431373, 0.850980392156863, 0.670588235294118, 1.0 ],
					"numinlets" : 1,
					"numoutlets" : 1,
					"outlettype" : [ "float" ],
					"outlinecolor" : [ 0.16078431372549, 0.16078431372549, 0.16078431372549, 1.0 ],
					"parameter_enable" : 0,
					"patching_rect" : [ 448.869008685151812, 358.633369644482741, 40.0, 40.0 ],
					"presentation" : 1,
					"presentation_rect" : [ 596.166671435038324, 73.249992847442627, 66.166671435038211, 66.166671435038211 ],
					"thickness" : 79.0
				}

			}
, 			{
				"box" : 				{
					"bgcolor" : [ 0.231372549019608, 0.231372549019608, 0.231372549019608, 1.0 ],
					"degrees" : 268,
					"id" : "obj-65",
					"maxclass" : "dial",
					"needlecolor" : [ 0.290196078431373, 0.850980392156863, 0.670588235294118, 1.0 ],
					"numinlets" : 1,
					"numoutlets" : 1,
					"outlettype" : [ "float" ],
					"outlinecolor" : [ 0.16078431372549, 0.16078431372549, 0.16078431372549, 1.0 ],
					"parameter_enable" : 0,
					"patching_rect" : [ 320.869008685151755, 358.633369644482741, 40.0, 40.0 ],
					"presentation" : 1,
					"presentation_rect" : [ 529.383335610230915, 73.249992847442627, 66.166671435038211, 66.166671435038211 ],
					"thickness" : 79.0
				}

			}
, 			{
				"box" : 				{
					"bgcolor" : [ 0.231372549019608, 0.231372549019608, 0.231372549019608, 1.0 ],
					"degrees" : 268,
					"id" : "obj-66",
					"maxclass" : "dial",
					"needlecolor" : [ 0.290196078431373, 0.850980392156863, 0.670588235294118, 1.0 ],
					"numinlets" : 1,
					"numoutlets" : 1,
					"outlettype" : [ "float" ],
					"outlinecolor" : [ 0.16078431372549, 0.16078431372549, 0.16078431372549, 1.0 ],
					"parameter_enable" : 0,
					"patching_rect" : [ 192.869008685151755, 358.633369644482741, 40.0, 40.0 ],
					"presentation" : 1,
					"presentation_rect" : [ 463.383335610230915, 73.249992847442627, 66.166671435038211, 66.166671435038211 ],
					"thickness" : 79.0
				}

			}
, 			{
				"box" : 				{
					"bgcolor" : [ 0.231372549019608, 0.231372549019608, 0.231372549019608, 1.0 ],
					"degrees" : 268,
					"id" : "obj-67",
					"maxclass" : "dial",
					"needlecolor" : [ 0.290196078431373, 0.850980392156863, 0.670588235294118, 1.0 ],
					"numinlets" : 1,
					"numoutlets" : 1,
					"outlettype" : [ "float" ],
					"outlinecolor" : [ 0.16078431372549, 0.16078431372549, 0.16078431372549, 1.0 ],
					"parameter_enable" : 0,
					"patching_rect" : [ 64.869008685151755, 358.633369644482741, 40.0, 40.0 ],
					"presentation" : 1,
					"presentation_rect" : [ 397.583335717519276, 73.249992847442627, 66.166671435038211, 66.166671435038211 ],
					"thickness" : 79.0
				}

			}
, 			{
				"box" : 				{
					"bgcolor" : [ 0.231372549019608, 0.231372549019608, 0.231372549019608, 1.0 ],
					"degrees" : 268,
					"id" : "obj-68",
					"maxclass" : "dial",
					"needlecolor" : [ 0.290196078431373, 0.850980392156863, 0.670588235294118, 1.0 ],
					"numinlets" : 1,
					"numoutlets" : 1,
					"outlettype" : [ "float" ],
					"outlinecolor" : [ 0.16078431372549, 0.16078431372549, 0.16078431372549, 1.0 ],
					"parameter_enable" : 0,
					"patching_rect" : [ 448.869008685151812, 264.633369644482741, 40.0, 40.0 ],
					"presentation" : 1,
					"presentation_rect" : [ 260.166671435038324, 72.0, 66.0, 66.0 ],
					"thickness" : 79.0
				}

			}
, 			{
				"box" : 				{
					"bgcolor" : [ 0.231372549019608, 0.231372549019608, 0.231372549019608, 1.0 ],
					"degrees" : 268,
					"id" : "obj-69",
					"maxclass" : "dial",
					"needlecolor" : [ 0.290196078431373, 0.850980392156863, 0.670588235294118, 1.0 ],
					"numinlets" : 1,
					"numoutlets" : 1,
					"outlettype" : [ "float" ],
					"outlinecolor" : [ 0.16078431372549, 0.16078431372549, 0.16078431372549, 1.0 ],
					"parameter_enable" : 0,
					"patching_rect" : [ 320.869008685151755, 264.633369644482741, 40.0, 40.0 ],
					"presentation" : 1,
					"presentation_rect" : [ 193.383335610230915, 72.0, 66.0, 66.0 ],
					"thickness" : 79.0
				}

			}
, 			{
				"box" : 				{
					"bgcolor" : [ 0.231372549019608, 0.231372549019608, 0.231372549019608, 1.0 ],
					"degrees" : 268,
					"id" : "obj-70",
					"maxclass" : "dial",
					"needlecolor" : [ 0.290196078431373, 0.850980392156863, 0.670588235294118, 1.0 ],
					"numinlets" : 1,
					"numoutlets" : 1,
					"outlettype" : [ "float" ],
					"outlinecolor" : [ 0.16078431372549, 0.16078431372549, 0.16078431372549, 1.0 ],
					"parameter_enable" : 0,
					"patching_rect" : [ 192.869008685151755, 264.633369644482741, 40.0, 40.0 ],
					"presentation" : 1,
					"presentation_rect" : [ 127.383335610230915, 72.0, 66.0, 66.0 ],
					"thickness" : 79.0
				}

			}
, 			{
				"box" : 				{
					"id" : "obj-71",
					"maxclass" : "newobj",
					"numinlets" : 2,
					"numoutlets" : 1,
					"outlettype" : [ "" ],
					"patching_rect" : [ 64.869008685151755, 311.633369644482741, 61.0, 22.0 ],
					"text" : "dialCC 38"
				}

			}
, 			{
				"box" : 				{
					"bgcolor" : [ 0.231372549019608, 0.231372549019608, 0.231372549019608, 1.0 ],
					"degrees" : 268,
					"id" : "obj-72",
					"maxclass" : "dial",
					"needlecolor" : [ 0.290196078431373, 0.850980392156863, 0.670588235294118, 1.0 ],
					"numinlets" : 1,
					"numoutlets" : 1,
					"outlettype" : [ "float" ],
					"outlinecolor" : [ 0.16078431372549, 0.16078431372549, 0.16078431372549, 1.0 ],
					"parameter_enable" : 0,
					"patching_rect" : [ 64.869008685151755, 264.633369644482741, 40.0, 40.0 ],
					"presentation" : 1,
					"presentation_rect" : [ 61.583335717519276, 72.0, 66.166671435038211, 66.166671435038211 ],
					"thickness" : 79.0
				}

			}
, 			{
				"box" : 				{
					"id" : "obj-64",
					"maxclass" : "message",
					"numinlets" : 2,
					"numoutlets" : 1,
					"outlettype" : [ "" ],
					"patching_rect" : [ 636.0, 431.000037550925867, 33.0, 22.0 ],
					"text" : "front"
				}

			}
, 			{
				"box" : 				{
					"id" : "obj-62",
					"maxclass" : "newobj",
					"numinlets" : 2,
					"numoutlets" : 2,
					"outlettype" : [ "", "" ],
					"patching_rect" : [ 636.0, 400.133403976757791, 66.0, 22.0 ],
					"text" : "route open"
				}

			}
, 			{
				"box" : 				{
					"id" : "obj-49",
					"maxclass" : "toggle",
					"numinlets" : 1,
					"numoutlets" : 1,
					"outlettype" : [ "int" ],
					"parameter_enable" : 0,
					"patching_rect" : [ 594.0, 106.233312805493824, 24.0, 24.0 ]
				}

			}
, 			{
				"box" : 				{
					"id" : "obj-50",
					"maxclass" : "newobj",
					"numinlets" : 0,
					"numoutlets" : 1,
					"outlettype" : [ "" ],
					"patching_rect" : [ 594.0, 73.233312805493824, 86.0, 22.0 ],
					"text" : "r preset_mode"
				}

			}
, 			{
				"box" : 				{
					"id" : "obj-51",
					"maxclass" : "newobj",
					"numinlets" : 2,
					"numoutlets" : 1,
					"outlettype" : [ "int" ],
					"patching_rect" : [ 594.0, 196.999962449074133, 29.5, 22.0 ],
					"text" : "+ 1"
				}

			}
, 			{
				"box" : 				{
					"id" : "obj-52",
					"maxclass" : "newobj",
					"numinlets" : 1,
					"numoutlets" : 2,
					"outlettype" : [ "bang", "int" ],
					"patching_rect" : [ 594.0, 163.0, 29.5, 22.0 ],
					"text" : "t b i"
				}

			}
, 			{
				"box" : 				{
					"id" : "obj-53",
					"maxclass" : "newobj",
					"numinlets" : 1,
					"numoutlets" : 1,
					"outlettype" : [ "" ],
					"patching_rect" : [ 726.319003482659809, 228.0, 25.0, 22.0 ],
					"text" : "iter"
				}

			}
, 			{
				"box" : 				{
					"id" : "obj-54",
					"maxclass" : "newobj",
					"numinlets" : 2,
					"numoutlets" : 2,
					"outlettype" : [ "", "" ],
					"patching_rect" : [ 709.319003482659809, 264.633369644482741, 42.0, 22.0 ],
					"text" : "gate 2"
				}

			}
, 			{
				"box" : 				{
					"id" : "obj-55",
					"maxclass" : "message",
					"numinlets" : 2,
					"numoutlets" : 1,
					"outlettype" : [ "" ],
					"patching_rect" : [ 579.5, 314.133369644482741, 121.0, 22.0 ],
					"text" : "script sendtoback $1"
				}

			}
, 			{
				"box" : 				{
					"id" : "obj-56",
					"maxclass" : "message",
					"numinlets" : 2,
					"numoutlets" : 1,
					"outlettype" : [ "" ],
					"patching_rect" : [ 714.270787759373661, 314.133369644482741, 118.0, 22.0 ],
					"text" : "script bringtofront $1"
				}

			}
, 			{
				"box" : 				{
					"id" : "obj-57",
					"maxclass" : "newobj",
					"numinlets" : 2,
					"numoutlets" : 2,
					"outlettype" : [ "", "" ],
					"patching_rect" : [ 662.319003482659809, 189.0, 89.0, 22.0 ],
					"text" : "route attributes"
				}

			}
, 			{
				"box" : 				{
					"id" : "obj-58",
					"maxclass" : "message",
					"numinlets" : 2,
					"numoutlets" : 1,
					"outlettype" : [ "" ],
					"patching_rect" : [ 676.319003482659809, 113.0, 75.0, 22.0 ],
					"text" : "getattributes"
				}

			}
, 			{
				"box" : 				{
					"comment" : "",
					"id" : "obj-59",
					"index" : 1,
					"maxclass" : "inlet",
					"numinlets" : 0,
					"numoutlets" : 1,
					"outlettype" : [ "" ],
					"patching_rect" : [ 636.0, 364.266739288965482, 25.0, 25.0 ]
				}

			}
, 			{
				"box" : 				{
					"fontname" : "Arial",
					"fontsize" : 11.934730999999999,
					"id" : "obj-60",
					"maxclass" : "newobj",
					"numinlets" : 1,
					"numoutlets" : 2,
					"outlettype" : [ "", "" ],
					"patching_rect" : [ 579.5, 468.633369644482741, 67.0, 22.0 ],
					"save" : [ "#N", "thispatcher", ";", "#Q", "end", ";" ],
					"text" : "thispatcher"
				}

			}
, 			{
				"box" : 				{
					"comment" : "",
					"id" : "obj-38",
					"index" : 1,
					"maxclass" : "outlet",
					"numinlets" : 1,
					"numoutlets" : 0,
					"patching_rect" : [ 20.770787759373775, 528.999996781349182, 30.0, 30.0 ]
				}

			}
, 			{
				"box" : 				{
					"id" : "obj-2",
					"maxclass" : "newobj",
					"numinlets" : 1,
					"numoutlets" : 1,
					"outlettype" : [ "bang" ],
					"patching_rect" : [ 130.620787122597335, 11.0, 58.0, 22.0 ],
					"text" : "loadbang"
				}

			}
, 			{
				"box" : 				{
					"id" : "obj-1",
					"maxclass" : "newobj",
					"numinlets" : 1,
					"numoutlets" : 1,
					"outlettype" : [ "" ],
					"patching_rect" : [ 130.620787122597335, 39.233312805493824, 56.0, 22.0 ],
					"text" : "v midiin1"
				}

			}
, 			{
				"box" : 				{
					"id" : "obj-289",
					"maxclass" : "newobj",
					"numinlets" : 2,
					"numoutlets" : 1,
					"outlettype" : [ "" ],
					"patching_rect" : [ 130.620787122597335, 102.733312805493824, 103.0, 22.0 ],
					"text" : "join 2 @triggers 1"
				}

			}
, 			{
				"box" : 				{
					"id" : "obj-216",
					"maxclass" : "newobj",
					"numinlets" : 2,
					"numoutlets" : 1,
					"outlettype" : [ "" ],
					"patching_rect" : [ 76.133286645015119, 121.0, 32.0, 22.0 ],
					"text" : "gate"
				}

			}
, 			{
				"box" : 				{
					"id" : "obj-217",
					"maxclass" : "newobj",
					"numinlets" : 0,
					"numoutlets" : 1,
					"outlettype" : [ "" ],
					"patching_rect" : [ 16.770787759373775, 73.233312805493824, 61.0, 22.0 ],
					"text" : "r ctrll_tggl"
				}

			}
, 			{
				"box" : 				{
					"id" : "obj-257",
					"maxclass" : "newobj",
					"numinlets" : 0,
					"numoutlets" : 1,
					"outlettype" : [ "" ],
					"patching_rect" : [ 257.770787759373775, 39.233312805493824, 60.0, 22.0 ],
					"text" : "r indevice"
				}

			}
, 			{
				"box" : 				{
					"id" : "obj-259",
					"maxclass" : "newobj",
					"numinlets" : 1,
					"numoutlets" : 3,
					"outlettype" : [ "int", "int", "int" ],
					"patching_rect" : [ 130.620787122597335, 69.999962449074133, 40.0, 22.0 ],
					"text" : "ctlin"
				}

			}
, 			{
				"box" : 				{
					"id" : "obj-3",
					"maxclass" : "newobj",
					"numinlets" : 1,
					"numoutlets" : 4,
					"outlettype" : [ "", "", "", "" ],
					"patching_rect" : [ 695.319003482659809, 148.233312805493824, 56.0, 22.0 ],
					"restore" : 					{
						"CCinput[11]" : [ "45" ],
						"CCinput[12]" : [ "44" ],
						"CCinput[1]" : [ "38" ],
						"CCinput[2]" : [ "39" ],
						"CCinput[3]" : [ "40" ],
						"CCinput[4]" : [ "41" ],
						"CCinput[5]" : [ "42" ],
						"CCinput[6]" : [ "43" ]
					}
,
					"text" : "autopattr",
					"varname" : "u951001353"
				}

			}
, 			{
				"box" : 				{
					"id" : "obj-23",
					"maxclass" : "newobj",
					"numinlets" : 9,
					"numoutlets" : 9,
					"outlettype" : [ "", "", "", "", "", "", "", "", "" ],
					"patching_rect" : [ 76.133286645015119, 174.866681615511652, 272.158440353969524, 22.0 ],
					"text" : "route 38 39 40 41 42 43 44 45"
				}

			}
, 			{
				"box" : 				{
					"align" : 1,
					"arrow" : 0,
					"bgcolor" : [ 0.815686274509804, 0.815686274509804, 0.815686274509804, 1.0 ],
					"bgfillcolor_angle" : 270.0,
					"bgfillcolor_autogradient" : 0.0,
					"bgfillcolor_color" : [ 0.815686274509804, 0.815686274509804, 0.815686274509804, 1.0 ],
					"bgfillcolor_color1" : [ 0.301961, 0.301961, 0.301961, 1.0 ],
					"bgfillcolor_color2" : [ 0.2, 0.2, 0.2, 1.0 ],
					"bgfillcolor_proportion" : 0.5,
					"bgfillcolor_type" : "color",
					"fontface" : 1,
					"fontname" : "Consolas",
					"fontsize" : 11.0,
					"id" : "obj-45",
					"items" : [ 1, ",", 2, ",", 3, ",", 4, ",", 5, ",", 6, ",", 7, ",", 8, ",", 9, ",", 10, ",", 11, ",", 12, ",", 13, ",", 14, ",", 15, ",", 16, ",", 17, ",", 18, ",", 19, ",", 20, ",", 21, ",", 22, ",", 23, ",", 24, ",", 25, ",", 26, ",", 27, ",", 28, ",", 29, ",", 30, ",", 31, ",", 32, ",", 33, ",", 34, ",", 35, ",", 36, ",", 37, ",", 38, ",", 39, ",", 40, ",", 41, ",", 42, ",", 43, ",", 44, ",", 45, ",", 46, ",", 47, ",", 48, ",", 49, ",", 50, ",", 51, ",", 52, ",", 53, ",", 54, ",", 55, ",", 56, ",", 57, ",", 58, ",", 59, ",", 60, ",", 61, ",", 62, ",", 63, ",", 64, ",", 65, ",", 66, ",", 67, ",", 68, ",", 69, ",", 70, ",", 71, ",", 72, ",", 73, ",", 74, ",", 75, ",", 76, ",", 77, ",", 78, ",", 79, ",", 80, ",", 81, ",", 82, ",", 83, ",", 84, ",", 85, ",", 86, ",", 87, ",", 88, ",", 89, ",", 90, ",", 91, ",", 92, ",", 93, ",", 94, ",", 95, ",", 96, ",", 97, ",", 98, ",", 99, ",", 100, ",", 101, ",", 102, ",", 103, ",", 104, ",", 105, ",", 106, ",", 107, ",", 108, ",", 109, ",", 110, ",", 111, ",", 112, ",", 113, ",", 114, ",", 115, ",", 116, ",", 117, ",", 118, ",", 119, ",", 120, ",", 121, ",", 122, ",", 123, ",", 124, ",", 125, ",", 126, ",", 127 ],
					"maxclass" : "umenu",
					"numinlets" : 1,
					"numoutlets" : 3,
					"outlettype" : [ "int", "", "" ],
					"parameter_enable" : 0,
					"patching_rect" : [ 324.373994051392287, 145.0, 29.0, 21.0 ],
					"pattrmode" : 1,
					"presentation" : 1,
					"presentation_rect" : [ 614.750007152557373, 114.000000000000057, 29.0, 21.0 ],
					"textcolor" : [ 0.16078431372549, 0.16078431372549, 0.16078431372549, 1.0 ],
					"textjustification" : 1,
					"varname" : "CCinput[11]"
				}

			}
, 			{
				"box" : 				{
					"align" : 1,
					"arrow" : 0,
					"bgcolor" : [ 0.815686274509804, 0.815686274509804, 0.815686274509804, 1.0 ],
					"bgfillcolor_angle" : 270.0,
					"bgfillcolor_autogradient" : 0.0,
					"bgfillcolor_color" : [ 0.815686274509804, 0.815686274509804, 0.815686274509804, 1.0 ],
					"bgfillcolor_color1" : [ 0.301961, 0.301961, 0.301961, 1.0 ],
					"bgfillcolor_color2" : [ 0.2, 0.2, 0.2, 1.0 ],
					"bgfillcolor_proportion" : 0.5,
					"bgfillcolor_type" : "color",
					"fontface" : 1,
					"fontname" : "Consolas",
					"fontsize" : 11.0,
					"id" : "obj-46",
					"items" : [ 1, ",", 2, ",", 3, ",", 4, ",", 5, ",", 6, ",", 7, ",", 8, ",", 9, ",", 10, ",", 11, ",", 12, ",", 13, ",", 14, ",", 15, ",", 16, ",", 17, ",", 18, ",", 19, ",", 20, ",", 21, ",", 22, ",", 23, ",", 24, ",", 25, ",", 26, ",", 27, ",", 28, ",", 29, ",", 30, ",", 31, ",", 32, ",", 33, ",", 34, ",", 35, ",", 36, ",", 37, ",", 38, ",", 39, ",", 40, ",", 41, ",", 42, ",", 43, ",", 44, ",", 45, ",", 46, ",", 47, ",", 48, ",", 49, ",", 50, ",", 51, ",", 52, ",", 53, ",", 54, ",", 55, ",", 56, ",", 57, ",", 58, ",", 59, ",", 60, ",", 61, ",", 62, ",", 63, ",", 64, ",", 65, ",", 66, ",", 67, ",", 68, ",", 69, ",", 70, ",", 71, ",", 72, ",", 73, ",", 74, ",", 75, ",", 76, ",", 77, ",", 78, ",", 79, ",", 80, ",", 81, ",", 82, ",", 83, ",", 84, ",", 85, ",", 86, ",", 87, ",", 88, ",", 89, ",", 90, ",", 91, ",", 92, ",", 93, ",", 94, ",", 95, ",", 96, ",", 97, ",", 98, ",", 99, ",", 100, ",", 101, ",", 102, ",", 103, ",", 104, ",", 105, ",", 106, ",", 107, ",", 108, ",", 109, ",", 110, ",", 111, ",", 112, ",", 113, ",", 114, ",", 115, ",", 116, ",", 117, ",", 118, ",", 119, ",", 120, ",", 121, ",", 122, ",", 123, ",", 124, ",", 125, ",", 126, ",", 127 ],
					"maxclass" : "umenu",
					"numinlets" : 1,
					"numoutlets" : 3,
					"outlettype" : [ "int", "", "" ],
					"parameter_enable" : 0,
					"patching_rect" : [ 288.770787759373775, 145.0, 29.0, 21.0 ],
					"pattrmode" : 1,
					"presentation" : 1,
					"presentation_rect" : [ 547.96667132774985, 114.000000000000057, 29.0, 21.0 ],
					"textcolor" : [ 0.16078431372549, 0.16078431372549, 0.16078431372549, 1.0 ],
					"textjustification" : 1,
					"varname" : "CCinput[12]"
				}

			}
, 			{
				"box" : 				{
					"align" : 1,
					"arrow" : 0,
					"bgcolor" : [ 0.815686274509804, 0.815686274509804, 0.815686274509804, 1.0 ],
					"bgfillcolor_angle" : 270.0,
					"bgfillcolor_autogradient" : 0.0,
					"bgfillcolor_color" : [ 0.815686274509804, 0.815686274509804, 0.815686274509804, 1.0 ],
					"bgfillcolor_color1" : [ 0.301961, 0.301961, 0.301961, 1.0 ],
					"bgfillcolor_color2" : [ 0.2, 0.2, 0.2, 1.0 ],
					"bgfillcolor_proportion" : 0.5,
					"bgfillcolor_type" : "color",
					"fontface" : 1,
					"fontname" : "Consolas",
					"fontsize" : 11.0,
					"id" : "obj-48",
					"items" : [ 1, ",", 2, ",", 3, ",", 4, ",", 5, ",", 6, ",", 7, ",", 8, ",", 9, ",", 10, ",", 11, ",", 12, ",", 13, ",", 14, ",", 15, ",", 16, ",", 17, ",", 18, ",", 19, ",", 20, ",", 21, ",", 22, ",", 23, ",", 24, ",", 25, ",", 26, ",", 27, ",", 28, ",", 29, ",", 30, ",", 31, ",", 32, ",", 33, ",", 34, ",", 35, ",", 36, ",", 37, ",", 38, ",", 39, ",", 40, ",", 41, ",", 42, ",", 43, ",", 44, ",", 45, ",", 46, ",", 47, ",", 48, ",", 49, ",", 50, ",", 51, ",", 52, ",", 53, ",", 54, ",", 55, ",", 56, ",", 57, ",", 58, ",", 59, ",", 60, ",", 61, ",", 62, ",", 63, ",", 64, ",", 65, ",", 66, ",", 67, ",", 68, ",", 69, ",", 70, ",", 71, ",", 72, ",", 73, ",", 74, ",", 75, ",", 76, ",", 77, ",", 78, ",", 79, ",", 80, ",", 81, ",", 82, ",", 83, ",", 84, ",", 85, ",", 86, ",", 87, ",", 88, ",", 89, ",", 90, ",", 91, ",", 92, ",", 93, ",", 94, ",", 95, ",", 96, ",", 97, ",", 98, ",", 99, ",", 100, ",", 101, ",", 102, ",", 103, ",", 104, ",", 105, ",", 106, ",", 107, ",", 108, ",", 109, ",", 110, ",", 111, ",", 112, ",", 113, ",", 114, ",", 115, ",", 116, ",", 117, ",", 118, ",", 119, ",", 120, ",", 121, ",", 122, ",", 123, ",", 124, ",", 125, ",", 126, ",", 127 ],
					"maxclass" : "umenu",
					"numinlets" : 1,
					"numoutlets" : 3,
					"outlettype" : [ "int", "", "" ],
					"parameter_enable" : 0,
					"patching_rect" : [ 101.784300211593319, 145.0, 29.0, 21.0 ],
					"pattrmode" : 1,
					"presentation" : 1,
					"presentation_rect" : [ 80.166671435038381, 114.000000000000057, 29.0, 21.0 ],
					"textcolor" : [ 0.16078431372549, 0.16078431372549, 0.16078431372549, 1.0 ],
					"textjustification" : 1,
					"varname" : "CCinput[1]"
				}

			}
, 			{
				"box" : 				{
					"align" : 1,
					"arrow" : 0,
					"bgcolor" : [ 0.815686274509804, 0.815686274509804, 0.815686274509804, 1.0 ],
					"bgfillcolor_angle" : 270.0,
					"bgfillcolor_autogradient" : 0.0,
					"bgfillcolor_color" : [ 0.815686274509804, 0.815686274509804, 0.815686274509804, 1.0 ],
					"bgfillcolor_color1" : [ 0.301961, 0.301961, 0.301961, 1.0 ],
					"bgfillcolor_color2" : [ 0.2, 0.2, 0.2, 1.0 ],
					"bgfillcolor_proportion" : 0.5,
					"bgfillcolor_type" : "color",
					"fontface" : 1,
					"fontname" : "Consolas",
					"fontsize" : 11.0,
					"id" : "obj-77",
					"items" : [ 1, ",", 2, ",", 3, ",", 4, ",", 5, ",", 6, ",", 7, ",", 8, ",", 9, ",", 10, ",", 11, ",", 12, ",", 13, ",", 14, ",", 15, ",", 16, ",", 17, ",", 18, ",", 19, ",", 20, ",", 21, ",", 22, ",", 23, ",", 24, ",", 25, ",", 26, ",", 27, ",", 28, ",", 29, ",", 30, ",", 31, ",", 32, ",", 33, ",", 34, ",", 35, ",", 36, ",", 37, ",", 38, ",", 39, ",", 40, ",", 41, ",", 42, ",", 43, ",", 44, ",", 45, ",", 46, ",", 47, ",", 48, ",", 49, ",", 50, ",", 51, ",", 52, ",", 53, ",", 54, ",", 55, ",", 56, ",", 57, ",", 58, ",", 59, ",", 60, ",", 61, ",", 62, ",", 63, ",", 64, ",", 65, ",", 66, ",", 67, ",", 68, ",", 69, ",", 70, ",", 71, ",", 72, ",", 73, ",", 74, ",", 75, ",", 76, ",", 77, ",", 78, ",", 79, ",", 80, ",", 81, ",", 82, ",", 83, ",", 84, ",", 85, ",", 86, ",", 87, ",", 88, ",", 89, ",", 90, ",", 91, ",", 92, ",", 93, ",", 94, ",", 95, ",", 96, ",", 97, ",", 98, ",", 99, ",", 100, ",", 101, ",", 102, ",", 103, ",", 104, ",", 105, ",", 106, ",", 107, ",", 108, ",", 109, ",", 110, ",", 111, ",", 112, ",", 113, ",", 114, ",", 115, ",", 116, ",", 117, ",", 118, ",", 119, ",", 120, ",", 121, ",", 122, ",", 123, ",", 124, ",", 125, ",", 126, ",", 127 ],
					"maxclass" : "umenu",
					"numinlets" : 1,
					"numoutlets" : 3,
					"outlettype" : [ "int", "", "" ],
					"parameter_enable" : 0,
					"patching_rect" : [ 137.387506503611803, 145.0, 29.0, 21.0 ],
					"pattrmode" : 1,
					"presentation" : 1,
					"presentation_rect" : [ 145.883335610230915, 114.000000000000057, 29.0, 21.0 ],
					"textcolor" : [ 0.16078431372549, 0.16078431372549, 0.16078431372549, 1.0 ],
					"textjustification" : 1,
					"varname" : "CCinput[2]"
				}

			}
, 			{
				"box" : 				{
					"align" : 1,
					"arrow" : 0,
					"bgcolor" : [ 0.815686274509804, 0.815686274509804, 0.815686274509804, 1.0 ],
					"bgfillcolor_angle" : 270.0,
					"bgfillcolor_autogradient" : 0.0,
					"bgfillcolor_color" : [ 0.815686274509804, 0.815686274509804, 0.815686274509804, 1.0 ],
					"bgfillcolor_color1" : [ 0.301961, 0.301961, 0.301961, 1.0 ],
					"bgfillcolor_color2" : [ 0.2, 0.2, 0.2, 1.0 ],
					"bgfillcolor_proportion" : 0.5,
					"bgfillcolor_type" : "color",
					"fontface" : 1,
					"fontname" : "Consolas",
					"fontsize" : 11.0,
					"id" : "obj-76",
					"items" : [ 1, ",", 2, ",", 3, ",", 4, ",", 5, ",", 6, ",", 7, ",", 8, ",", 9, ",", 10, ",", 11, ",", 12, ",", 13, ",", 14, ",", 15, ",", 16, ",", 17, ",", 18, ",", 19, ",", 20, ",", 21, ",", 22, ",", 23, ",", 24, ",", 25, ",", 26, ",", 27, ",", 28, ",", 29, ",", 30, ",", 31, ",", 32, ",", 33, ",", 34, ",", 35, ",", 36, ",", 37, ",", 38, ",", 39, ",", 40, ",", 41, ",", 42, ",", 43, ",", 44, ",", 45, ",", 46, ",", 47, ",", 48, ",", 49, ",", 50, ",", 51, ",", 52, ",", 53, ",", 54, ",", 55, ",", 56, ",", 57, ",", 58, ",", 59, ",", 60, ",", 61, ",", 62, ",", 63, ",", 64, ",", 65, ",", 66, ",", 67, ",", 68, ",", 69, ",", 70, ",", 71, ",", 72, ",", 73, ",", 74, ",", 75, ",", 76, ",", 77, ",", 78, ",", 79, ",", 80, ",", 81, ",", 82, ",", 83, ",", 84, ",", 85, ",", 86, ",", 87, ",", 88, ",", 89, ",", 90, ",", 91, ",", 92, ",", 93, ",", 94, ",", 95, ",", 96, ",", 97, ",", 98, ",", 99, ",", 100, ",", 101, ",", 102, ",", 103, ",", 104, ",", 105, ",", 106, ",", 107, ",", 108, ",", 109, ",", 110, ",", 111, ",", 112, ",", 113, ",", 114, ",", 115, ",", 116, ",", 117, ",", 118, ",", 119, ",", 120, ",", 121, ",", 122, ",", 123, ",", 124, ",", 125, ",", 126, ",", 127 ],
					"maxclass" : "umenu",
					"numinlets" : 1,
					"numoutlets" : 3,
					"outlettype" : [ "int", "", "" ],
					"parameter_enable" : 0,
					"patching_rect" : [ 167.550006662805856, 145.0, 29.0, 21.0 ],
					"pattrmode" : 1,
					"presentation" : 1,
					"presentation_rect" : [ 211.883335610230915, 114.000000000000057, 29.0, 21.0 ],
					"textcolor" : [ 0.16078431372549, 0.16078431372549, 0.16078431372549, 1.0 ],
					"textjustification" : 1,
					"varname" : "CCinput[3]"
				}

			}
, 			{
				"box" : 				{
					"align" : 1,
					"arrow" : 0,
					"bgcolor" : [ 0.815686274509804, 0.815686274509804, 0.815686274509804, 1.0 ],
					"bgfillcolor_angle" : 270.0,
					"bgfillcolor_autogradient" : 0.0,
					"bgfillcolor_color" : [ 0.815686274509804, 0.815686274509804, 0.815686274509804, 1.0 ],
					"bgfillcolor_color1" : [ 0.301961, 0.301961, 0.301961, 1.0 ],
					"bgfillcolor_color2" : [ 0.2, 0.2, 0.2, 1.0 ],
					"bgfillcolor_proportion" : 0.5,
					"bgfillcolor_type" : "color",
					"fontface" : 1,
					"fontname" : "Consolas",
					"fontsize" : 11.0,
					"id" : "obj-85",
					"items" : [ 1, ",", 2, ",", 3, ",", 4, ",", 5, ",", 6, ",", 7, ",", 8, ",", 9, ",", 10, ",", 11, ",", 12, ",", 13, ",", 14, ",", 15, ",", 16, ",", 17, ",", 18, ",", 19, ",", 20, ",", 21, ",", 22, ",", 23, ",", 24, ",", 25, ",", 26, ",", 27, ",", 28, ",", 29, ",", 30, ",", 31, ",", 32, ",", 33, ",", 34, ",", 35, ",", 36, ",", 37, ",", 38, ",", 39, ",", 40, ",", 41, ",", 42, ",", 43, ",", 44, ",", 45, ",", 46, ",", 47, ",", 48, ",", 49, ",", 50, ",", 51, ",", 52, ",", 53, ",", 54, ",", 55, ",", 56, ",", 57, ",", 58, ",", 59, ",", 60, ",", 61, ",", 62, ",", 63, ",", 64, ",", 65, ",", 66, ",", 67, ",", 68, ",", 69, ",", 70, ",", 71, ",", 72, ",", 73, ",", 74, ",", 75, ",", 76, ",", 77, ",", 78, ",", 79, ",", 80, ",", 81, ",", 82, ",", 83, ",", 84, ",", 85, ",", 86, ",", 87, ",", 88, ",", 89, ",", 90, ",", 91, ",", 92, ",", 93, ",", 94, ",", 95, ",", 96, ",", 97, ",", 98, ",", 99, ",", 100, ",", 101, ",", 102, ",", 103, ",", 104, ",", 105, ",", 106, ",", 107, ",", 108, ",", 109, ",", 110, ",", 111, ",", 112, ",", 113, ",", 114, ",", 115, ",", 116, ",", 117, ",", 118, ",", 119, ",", 120, ",", 121, ",", 122, ",", 123, ",", 124, ",", 125, ",", 126, ",", 127 ],
					"maxclass" : "umenu",
					"numinlets" : 1,
					"numoutlets" : 3,
					"outlettype" : [ "int", "", "" ],
					"parameter_enable" : 0,
					"patching_rect" : [ 197.712506821999881, 145.0, 29.0, 21.0 ],
					"pattrmode" : 1,
					"presentation" : 1,
					"presentation_rect" : [ 278.666671435038324, 114.000000000000057, 29.0, 21.0 ],
					"textcolor" : [ 0.16078431372549, 0.16078431372549, 0.16078431372549, 1.0 ],
					"textjustification" : 1,
					"varname" : "CCinput[4]"
				}

			}
, 			{
				"box" : 				{
					"align" : 1,
					"arrow" : 0,
					"bgcolor" : [ 0.815686274509804, 0.815686274509804, 0.815686274509804, 1.0 ],
					"bgfillcolor_angle" : 270.0,
					"bgfillcolor_autogradient" : 0.0,
					"bgfillcolor_color" : [ 0.815686274509804, 0.815686274509804, 0.815686274509804, 1.0 ],
					"bgfillcolor_color1" : [ 0.301961, 0.301961, 0.301961, 1.0 ],
					"bgfillcolor_color2" : [ 0.2, 0.2, 0.2, 1.0 ],
					"bgfillcolor_proportion" : 0.5,
					"bgfillcolor_type" : "color",
					"fontface" : 1,
					"fontname" : "Consolas",
					"fontsize" : 11.0,
					"id" : "obj-83",
					"items" : [ 1, ",", 2, ",", 3, ",", 4, ",", 5, ",", 6, ",", 7, ",", 8, ",", 9, ",", 10, ",", 11, ",", 12, ",", 13, ",", 14, ",", 15, ",", 16, ",", 17, ",", 18, ",", 19, ",", 20, ",", 21, ",", 22, ",", 23, ",", 24, ",", 25, ",", 26, ",", 27, ",", 28, ",", 29, ",", 30, ",", 31, ",", 32, ",", 33, ",", 34, ",", 35, ",", 36, ",", 37, ",", 38, ",", 39, ",", 40, ",", 41, ",", 42, ",", 43, ",", 44, ",", 45, ",", 46, ",", 47, ",", 48, ",", 49, ",", 50, ",", 51, ",", 52, ",", 53, ",", 54, ",", 55, ",", 56, ",", 57, ",", 58, ",", 59, ",", 60, ",", 61, ",", 62, ",", 63, ",", 64, ",", 65, ",", 66, ",", 67, ",", 68, ",", 69, ",", 70, ",", 71, ",", 72, ",", 73, ",", 74, ",", 75, ",", 76, ",", 77, ",", 78, ",", 79, ",", 80, ",", 81, ",", 82, ",", 83, ",", 84, ",", 85, ",", 86, ",", 87, ",", 88, ",", 89, ",", 90, ",", 91, ",", 92, ",", 93, ",", 94, ",", 95, ",", 96, ",", 97, ",", 98, ",", 99, ",", 100, ",", 101, ",", 102, ",", 103, ",", 104, ",", 105, ",", 106, ",", 107, ",", 108, ",", 109, ",", 110, ",", 111, ",", 112, ",", 113, ",", 114, ",", 115, ",", 116, ",", 117, ",", 118, ",", 119, ",", 120, ",", 121, ",", 122, ",", 123, ",", 124, ",", 125, ",", 126, ",", 127 ],
					"maxclass" : "umenu",
					"numinlets" : 1,
					"numoutlets" : 3,
					"outlettype" : [ "int", "", "" ],
					"parameter_enable" : 0,
					"patching_rect" : [ 227.875006981193991, 145.0, 29.0, 21.0 ],
					"pattrmode" : 1,
					"presentation" : 1,
					"presentation_rect" : [ 416.166671435038381, 114.000000000000057, 29.0, 21.0 ],
					"textcolor" : [ 0.16078431372549, 0.16078431372549, 0.16078431372549, 1.0 ],
					"textjustification" : 1,
					"varname" : "CCinput[5]"
				}

			}
, 			{
				"box" : 				{
					"align" : 1,
					"arrow" : 0,
					"bgcolor" : [ 0.815686274509804, 0.815686274509804, 0.815686274509804, 1.0 ],
					"bgfillcolor_angle" : 270.0,
					"bgfillcolor_autogradient" : 0.0,
					"bgfillcolor_color" : [ 0.815686274509804, 0.815686274509804, 0.815686274509804, 1.0 ],
					"bgfillcolor_color1" : [ 0.301961, 0.301961, 0.301961, 1.0 ],
					"bgfillcolor_color2" : [ 0.2, 0.2, 0.2, 1.0 ],
					"bgfillcolor_proportion" : 0.5,
					"bgfillcolor_type" : "color",
					"fontface" : 1,
					"fontname" : "Consolas",
					"fontsize" : 11.0,
					"id" : "obj-81",
					"items" : [ 1, ",", 2, ",", 3, ",", 4, ",", 5, ",", 6, ",", 7, ",", 8, ",", 9, ",", 10, ",", 11, ",", 12, ",", 13, ",", 14, ",", 15, ",", 16, ",", 17, ",", 18, ",", 19, ",", 20, ",", 21, ",", 22, ",", 23, ",", 24, ",", 25, ",", 26, ",", 27, ",", 28, ",", 29, ",", 30, ",", 31, ",", 32, ",", 33, ",", 34, ",", 35, ",", 36, ",", 37, ",", 38, ",", 39, ",", 40, ",", 41, ",", 42, ",", 43, ",", 44, ",", 45, ",", 46, ",", 47, ",", 48, ",", 49, ",", 50, ",", 51, ",", 52, ",", 53, ",", 54, ",", 55, ",", 56, ",", 57, ",", 58, ",", 59, ",", 60, ",", 61, ",", 62, ",", 63, ",", 64, ",", 65, ",", 66, ",", 67, ",", 68, ",", 69, ",", 70, ",", 71, ",", 72, ",", 73, ",", 74, ",", 75, ",", 76, ",", 77, ",", 78, ",", 79, ",", 80, ",", 81, ",", 82, ",", 83, ",", 84, ",", 85, ",", 86, ",", 87, ",", 88, ",", 89, ",", 90, ",", 91, ",", 92, ",", 93, ",", 94, ",", 95, ",", 96, ",", 97, ",", 98, ",", 99, ",", 100, ",", 101, ",", 102, ",", 103, ",", 104, ",", 105, ",", 106, ",", 107, ",", 108, ",", 109, ",", 110, ",", 111, ",", 112, ",", 113, ",", 114, ",", 115, ",", 116, ",", 117, ",", 118, ",", 119, ",", 120, ",", 121, ",", 122, ",", 123, ",", 124, ",", 125, ",", 126, ",", 127 ],
					"maxclass" : "umenu",
					"numinlets" : 1,
					"numoutlets" : 3,
					"outlettype" : [ "int", "", "" ],
					"parameter_enable" : 0,
					"patching_rect" : [ 258.037507140388129, 145.0, 29.0, 21.0 ],
					"pattrmode" : 1,
					"presentation" : 1,
					"presentation_rect" : [ 481.966671327750078, 114.000000000000057, 29.0, 21.0 ],
					"textcolor" : [ 0.16078431372549, 0.16078431372549, 0.16078431372549, 1.0 ],
					"textjustification" : 1,
					"varname" : "CCinput[6]"
				}

			}
 ],
		"lines" : [ 			{
				"patchline" : 				{
					"destination" : [ "obj-259", 0 ],
					"source" : [ "obj-1", 0 ]
				}

			}
, 			{
				"patchline" : 				{
					"destination" : [ "obj-1", 0 ],
					"source" : [ "obj-2", 0 ]
				}

			}
, 			{
				"patchline" : 				{
					"destination" : [ "obj-71", 1 ],
					"midpoints" : [ 127.394007729987152, 306.0, 116.369008685151755, 306.0 ],
					"source" : [ "obj-201", 0 ]
				}

			}
, 			{
				"patchline" : 				{
					"destination" : [ "obj-23", 0 ],
					"source" : [ "obj-216", 0 ]
				}

			}
, 			{
				"patchline" : 				{
					"destination" : [ "obj-216", 0 ],
					"midpoints" : [ 26.270787759373775, 105.000004649162292, 82.745805383970378, 105.000004649162292, 82.745805383970378, 87.000004649162292, 85.633286645015119, 87.000004649162292 ],
					"source" : [ "obj-217", 0 ]
				}

			}
, 			{
				"patchline" : 				{
					"destination" : [ "obj-61", 1 ],
					"midpoints" : [ 250.706508525957531, 306.0, 244.369008685151755, 306.0 ],
					"source" : [ "obj-222", 0 ]
				}

			}
, 			{
				"patchline" : 				{
					"destination" : [ "obj-27", 1 ],
					"midpoints" : [ 383.856509162733971, 300.0, 375.0, 300.0, 375.0, 306.0, 372.369008685151755, 306.0 ],
					"source" : [ "obj-225", 0 ]
				}

			}
, 			{
				"patchline" : 				{
					"destination" : [ "obj-4", 1 ],
					"midpoints" : [ 510.969025696317431, 300.0, 501.0, 300.0, 501.0, 306.0, 500.369008685151812, 306.0 ],
					"source" : [ "obj-228", 0 ]
				}

			}
, 			{
				"patchline" : 				{
					"destination" : [ "obj-63", 0 ],
					"midpoints" : [ 307.146921954738445, 240.0, 444.0, 240.0, 444.0, 348.0, 453.0, 348.0, 453.0, 354.0, 458.369008685151812, 354.0 ],
					"source" : [ "obj-23", 7 ]
				}

			}
, 			{
				"patchline" : 				{
					"destination" : [ "obj-65", 0 ],
					"midpoints" : [ 275.502116910492248, 243.0, 315.0, 243.0, 315.0, 345.0, 330.369008685151755, 345.0 ],
					"source" : [ "obj-23", 6 ]
				}

			}
, 			{
				"patchline" : 				{
					"destination" : [ "obj-66", 0 ],
					"midpoints" : [ 243.857311866246079, 243.0, 189.0, 243.0, 189.0, 345.0, 202.369008685151755, 345.0 ],
					"source" : [ "obj-23", 5 ]
				}

			}
, 			{
				"patchline" : 				{
					"destination" : [ "obj-67", 0 ],
					"midpoints" : [ 212.212506821999881, 243.0, 51.0, 243.0, 51.0, 345.0, 74.369008685151755, 345.0 ],
					"source" : [ "obj-23", 4 ]
				}

			}
, 			{
				"patchline" : 				{
					"destination" : [ "obj-68", 0 ],
					"midpoints" : [ 180.567701777753683, 240.0, 458.369008685151812, 240.0 ],
					"source" : [ "obj-23", 3 ]
				}

			}
, 			{
				"patchline" : 				{
					"destination" : [ "obj-69", 0 ],
					"midpoints" : [ 148.922896733507514, 243.0, 330.369008685151755, 243.0 ],
					"source" : [ "obj-23", 2 ]
				}

			}
, 			{
				"patchline" : 				{
					"destination" : [ "obj-70", 0 ],
					"midpoints" : [ 117.278091689261316, 243.0, 202.369008685151755, 243.0 ],
					"source" : [ "obj-23", 1 ]
				}

			}
, 			{
				"patchline" : 				{
					"destination" : [ "obj-72", 0 ],
					"midpoints" : [ 85.633286645015119, 249.0, 74.369008685151755, 249.0 ],
					"source" : [ "obj-23", 0 ]
				}

			}
, 			{
				"patchline" : 				{
					"destination" : [ "obj-84", 1 ],
					"midpoints" : [ 127.394007729987152, 399.0, 116.369008685151755, 399.0 ],
					"source" : [ "obj-232", 0 ]
				}

			}
, 			{
				"patchline" : 				{
					"destination" : [ "obj-82", 1 ],
					"midpoints" : [ 253.797580113723313, 399.0, 244.369008685151755, 399.0 ],
					"source" : [ "obj-235", 0 ]
				}

			}
, 			{
				"patchline" : 				{
					"destination" : [ "obj-80", 1 ],
					"midpoints" : [ 383.856509162733971, 399.0, 372.369008685151755, 399.0 ],
					"source" : [ "obj-238", 0 ]
				}

			}
, 			{
				"patchline" : 				{
					"destination" : [ "obj-78", 1 ],
					"midpoints" : [ 510.969025696317431, 399.0, 500.369008685151812, 399.0 ],
					"source" : [ "obj-241", 0 ]
				}

			}
, 			{
				"patchline" : 				{
					"destination" : [ "obj-259", 0 ],
					"source" : [ "obj-257", 0 ]
				}

			}
, 			{
				"patchline" : 				{
					"destination" : [ "obj-289", 0 ],
					"midpoints" : [ 150.620787122597335, 94.733312805493824, 140.120787122597335, 94.733312805493824 ],
					"source" : [ "obj-259", 1 ]
				}

			}
, 			{
				"patchline" : 				{
					"destination" : [ "obj-289", 1 ],
					"midpoints" : [ 140.120787122597335, 94.733312805493824, 224.120787122597335, 94.733312805493824 ],
					"source" : [ "obj-259", 0 ]
				}

			}
, 			{
				"patchline" : 				{
					"destination" : [ "obj-38", 0 ],
					"midpoints" : [ 330.369008685151755, 345.0, 309.0, 345.0, 309.0, 408.0, 264.0, 408.0, 264.0, 513.0, 30.270787759373775, 513.0 ],
					"source" : [ "obj-27", 0 ]
				}

			}
, 			{
				"patchline" : 				{
					"destination" : [ "obj-216", 1 ],
					"source" : [ "obj-289", 0 ]
				}

			}
, 			{
				"patchline" : 				{
					"destination" : [ "obj-57", 0 ],
					"source" : [ "obj-3", 3 ]
				}

			}
, 			{
				"patchline" : 				{
					"destination" : [ "obj-38", 0 ],
					"midpoints" : [ 458.369008685151812, 336.0, 360.0, 336.0, 360.0, 345.0, 309.0, 345.0, 309.0, 408.0, 264.0, 408.0, 264.0, 513.0, 30.270787759373775, 513.0 ],
					"source" : [ "obj-4", 0 ]
				}

			}
, 			{
				"patchline" : 				{
					"destination" : [ "obj-23", 8 ],
					"source" : [ "obj-45", 1 ]
				}

			}
, 			{
				"patchline" : 				{
					"destination" : [ "obj-23", 7 ],
					"source" : [ "obj-46", 1 ]
				}

			}
, 			{
				"patchline" : 				{
					"destination" : [ "obj-23", 1 ],
					"source" : [ "obj-48", 1 ]
				}

			}
, 			{
				"patchline" : 				{
					"destination" : [ "obj-52", 0 ],
					"midpoints" : [ 603.5, 131.0, 603.5, 131.0 ],
					"source" : [ "obj-49", 0 ]
				}

			}
, 			{
				"patchline" : 				{
					"destination" : [ "obj-49", 0 ],
					"midpoints" : [ 603.5, 98.0, 603.5, 98.0 ],
					"source" : [ "obj-50", 0 ]
				}

			}
, 			{
				"patchline" : 				{
					"destination" : [ "obj-54", 0 ],
					"midpoints" : [ 603.5, 251.0, 718.819003482659809, 251.0 ],
					"source" : [ "obj-51", 0 ]
				}

			}
, 			{
				"patchline" : 				{
					"destination" : [ "obj-51", 0 ],
					"midpoints" : [ 614.0, 188.0, 603.5, 188.0 ],
					"source" : [ "obj-52", 1 ]
				}

			}
, 			{
				"patchline" : 				{
					"destination" : [ "obj-58", 0 ],
					"midpoints" : [ 603.5, 188.0, 648.0, 188.0, 648.0, 107.0, 685.819003482659809, 107.0 ],
					"source" : [ "obj-52", 0 ]
				}

			}
, 			{
				"patchline" : 				{
					"destination" : [ "obj-54", 1 ],
					"midpoints" : [ 735.819003482659809, 257.0, 741.819003482659809, 257.0 ],
					"source" : [ "obj-53", 0 ]
				}

			}
, 			{
				"patchline" : 				{
					"destination" : [ "obj-55", 0 ],
					"midpoints" : [ 718.819003482659809, 299.0, 589.0, 299.0 ],
					"source" : [ "obj-54", 0 ]
				}

			}
, 			{
				"patchline" : 				{
					"destination" : [ "obj-56", 0 ],
					"midpoints" : [ 741.819003482659809, 299.0, 723.770787759373661, 299.0 ],
					"source" : [ "obj-54", 1 ]
				}

			}
, 			{
				"patchline" : 				{
					"destination" : [ "obj-60", 0 ],
					"midpoints" : [ 589.0, 339.0, 589.0, 339.0 ],
					"source" : [ "obj-55", 0 ]
				}

			}
, 			{
				"patchline" : 				{
					"destination" : [ "obj-60", 0 ],
					"midpoints" : [ 723.770787759373661, 348.0, 589.0, 348.0 ],
					"source" : [ "obj-56", 0 ]
				}

			}
, 			{
				"patchline" : 				{
					"destination" : [ "obj-53", 0 ],
					"midpoints" : [ 671.819003482659809, 224.0, 735.819003482659809, 224.0 ],
					"source" : [ "obj-57", 0 ]
				}

			}
, 			{
				"patchline" : 				{
					"destination" : [ "obj-3", 0 ],
					"source" : [ "obj-58", 0 ]
				}

			}
, 			{
				"patchline" : 				{
					"destination" : [ "obj-62", 0 ],
					"midpoints" : [ 645.5, 391.0, 645.5, 391.0 ],
					"source" : [ "obj-59", 0 ]
				}

			}
, 			{
				"patchline" : 				{
					"destination" : [ "obj-38", 0 ],
					"midpoints" : [ 202.369008685151755, 336.0, 105.0, 336.0, 105.0, 345.0, 30.270787759373775, 345.0 ],
					"source" : [ "obj-61", 0 ]
				}

			}
, 			{
				"patchline" : 				{
					"destination" : [ "obj-60", 0 ],
					"midpoints" : [ 692.5, 463.0, 589.0, 463.0 ],
					"source" : [ "obj-62", 1 ]
				}

			}
, 			{
				"patchline" : 				{
					"destination" : [ "obj-64", 0 ],
					"midpoints" : [ 645.5, 424.0, 645.5, 424.0 ],
					"source" : [ "obj-62", 0 ]
				}

			}
, 			{
				"patchline" : 				{
					"destination" : [ "obj-78", 0 ],
					"midpoints" : [ 458.369008685151812, 399.0, 458.369008685151812, 399.0 ],
					"source" : [ "obj-63", 0 ]
				}

			}
, 			{
				"patchline" : 				{
					"destination" : [ "obj-60", 0 ],
					"midpoints" : [ 645.5, 454.0, 589.0, 454.0 ],
					"source" : [ "obj-64", 0 ]
				}

			}
, 			{
				"patchline" : 				{
					"destination" : [ "obj-80", 0 ],
					"midpoints" : [ 330.369008685151755, 399.0, 330.369008685151755, 399.0 ],
					"source" : [ "obj-65", 0 ]
				}

			}
, 			{
				"patchline" : 				{
					"destination" : [ "obj-82", 0 ],
					"midpoints" : [ 202.369008685151755, 399.0, 202.369008685151755, 399.0 ],
					"source" : [ "obj-66", 0 ]
				}

			}
, 			{
				"patchline" : 				{
					"destination" : [ "obj-84", 0 ],
					"midpoints" : [ 74.369008685151755, 399.0, 74.369008685151755, 399.0 ],
					"source" : [ "obj-67", 0 ]
				}

			}
, 			{
				"patchline" : 				{
					"destination" : [ "obj-4", 0 ],
					"midpoints" : [ 458.369008685151812, 306.0, 458.369008685151812, 306.0 ],
					"source" : [ "obj-68", 0 ]
				}

			}
, 			{
				"patchline" : 				{
					"destination" : [ "obj-27", 0 ],
					"midpoints" : [ 330.369008685151755, 306.0, 330.369008685151755, 306.0 ],
					"source" : [ "obj-69", 0 ]
				}

			}
, 			{
				"patchline" : 				{
					"destination" : [ "obj-61", 0 ],
					"midpoints" : [ 202.369008685151755, 306.0, 202.369008685151755, 306.0 ],
					"source" : [ "obj-70", 0 ]
				}

			}
, 			{
				"patchline" : 				{
					"destination" : [ "obj-38", 0 ],
					"midpoints" : [ 74.369008685151755, 345.0, 30.270787759373775, 345.0 ],
					"source" : [ "obj-71", 0 ]
				}

			}
, 			{
				"patchline" : 				{
					"destination" : [ "obj-71", 0 ],
					"midpoints" : [ 74.369008685151755, 306.0, 74.369008685151755, 306.0 ],
					"source" : [ "obj-72", 0 ]
				}

			}
, 			{
				"patchline" : 				{
					"destination" : [ "obj-23", 3 ],
					"source" : [ "obj-76", 1 ]
				}

			}
, 			{
				"patchline" : 				{
					"destination" : [ "obj-23", 2 ],
					"source" : [ "obj-77", 1 ]
				}

			}
, 			{
				"patchline" : 				{
					"destination" : [ "obj-38", 0 ],
					"midpoints" : [ 458.369008685151812, 513.0, 30.270787759373775, 513.0 ],
					"source" : [ "obj-78", 0 ]
				}

			}
, 			{
				"patchline" : 				{
					"destination" : [ "obj-38", 0 ],
					"midpoints" : [ 330.369008685151755, 513.0, 30.270787759373775, 513.0 ],
					"source" : [ "obj-80", 0 ]
				}

			}
, 			{
				"patchline" : 				{
					"destination" : [ "obj-23", 6 ],
					"source" : [ "obj-81", 1 ]
				}

			}
, 			{
				"patchline" : 				{
					"destination" : [ "obj-38", 0 ],
					"midpoints" : [ 202.369008685151755, 513.0, 30.270787759373775, 513.0 ],
					"source" : [ "obj-82", 0 ]
				}

			}
, 			{
				"patchline" : 				{
					"destination" : [ "obj-23", 5 ],
					"source" : [ "obj-83", 1 ]
				}

			}
, 			{
				"patchline" : 				{
					"destination" : [ "obj-38", 0 ],
					"midpoints" : [ 74.369008685151755, 513.0, 30.270787759373775, 513.0 ],
					"source" : [ "obj-84", 0 ]
				}

			}
, 			{
				"patchline" : 				{
					"destination" : [ "obj-23", 4 ],
					"source" : [ "obj-85", 1 ]
				}

			}
 ]
	}

}
