{
	"patcher" : 	{
		"fileversion" : 1,
		"appversion" : 		{
			"major" : 8,
			"minor" : 3,
			"revision" : 2,
			"architecture" : "x64",
			"modernui" : 1
		}
,
		"classnamespace" : "box",
		"rect" : [ 386.0, 114.0, 1047.0, 573.0 ],
		"bglocked" : 0,
		"openinpresentation" : 1,
		"default_fontsize" : 12.0,
		"default_fontface" : 0,
		"default_fontname" : "Arial",
		"gridonopen" : 1,
		"gridsize" : [ 15.0, 15.0 ],
		"gridsnaponopen" : 1,
		"objectsnaponopen" : 1,
		"statusbarvisible" : 2,
		"toolbarvisible" : 1,
		"lefttoolbarpinned" : 0,
		"toptoolbarpinned" : 0,
		"righttoolbarpinned" : 0,
		"bottomtoolbarpinned" : 0,
		"toolbars_unpinned_last_save" : 0,
		"tallnewobj" : 0,
		"boxanimatetime" : 200,
		"enablehscroll" : 1,
		"enablevscroll" : 1,
		"devicewidth" : 0.0,
		"description" : "",
		"digest" : "",
		"tags" : "",
		"style" : "",
		"subpatcher_template" : "",
		"assistshowspatchername" : 0,
		"boxes" : [ 			{
				"box" : 				{
					"id" : "obj-289",
					"maxclass" : "newobj",
					"numinlets" : 2,
					"numoutlets" : 1,
					"outlettype" : [ "" ],
					"patching_rect" : [ 470.270787759373604, 99.733341892560219, 103.0, 22.0 ],
					"text" : "join 2 @triggers 1"
				}

			}
, 			{
				"box" : 				{
					"id" : "obj-216",
					"maxclass" : "newobj",
					"numinlets" : 2,
					"numoutlets" : 1,
					"outlettype" : [ "" ],
					"patching_rect" : [ 456.574994929134903, 136.699992656708076, 32.0, 22.0 ],
					"text" : "gate"
				}

			}
, 			{
				"box" : 				{
					"id" : "obj-217",
					"maxclass" : "newobj",
					"numinlets" : 0,
					"numoutlets" : 1,
					"outlettype" : [ "" ],
					"patching_rect" : [ 405.495799994717061, 63.999991536140527, 61.0, 22.0 ],
					"text" : "r ctrll_tggl"
				}

			}
, 			{
				"box" : 				{
					"id" : "obj-257",
					"maxclass" : "newobj",
					"numinlets" : 0,
					"numoutlets" : 1,
					"outlettype" : [ "" ],
					"patching_rect" : [ 470.270787759373604, 35.233341892560219, 60.0, 22.0 ],
					"text" : "r indevice"
				}

			}
, 			{
				"box" : 				{
					"id" : "obj-259",
					"maxclass" : "newobj",
					"numinlets" : 1,
					"numoutlets" : 3,
					"outlettype" : [ "int", "int", "int" ],
					"patching_rect" : [ 470.270787759373604, 63.999991536140527, 40.0, 22.0 ],
					"text" : "ctlin"
				}

			}
, 			{
				"box" : 				{
					"align" : 1,
					"arrow" : 0,
					"bgcolor" : [ 0.850980392156863, 0.290196078431373, 0.470588235294118, 1.0 ],
					"bgfillcolor_angle" : 270.0,
					"bgfillcolor_autogradient" : 0.0,
					"bgfillcolor_color" : [ 0.850980392156863, 0.290196078431373, 0.470588235294118, 1.0 ],
					"bgfillcolor_color1" : [ 0.850980392156863, 0.713725490196078, 0.290196078431373, 1.0 ],
					"bgfillcolor_color2" : [ 0.2, 0.2, 0.2, 1.0 ],
					"bgfillcolor_proportion" : 0.5,
					"bgfillcolor_type" : "color",
					"fontface" : 1,
					"fontname" : "Consolas",
					"fontsize" : 11.0,
					"id" : "obj-4",
					"items" : [ 1, ",", 2, ",", 3, ",", 4, ",", 5, ",", 6, ",", 7, ",", 8, ",", 9, ",", 10, ",", 11, ",", 12, ",", 13, ",", 14, ",", 15, ",", 16, ",", 17, ",", 18, ",", 19, ",", 20, ",", 21, ",", 22, ",", 23, ",", 24, ",", 25, ",", 26, ",", 27, ",", 28, ",", 29, ",", 30, ",", 31, ",", 32, ",", 33, ",", 34, ",", 35, ",", 36, ",", 37, ",", 38, ",", 39, ",", 40, ",", 41, ",", 42, ",", 43, ",", 44, ",", 45, ",", 46, ",", 47, ",", 48, ",", 49, ",", 50, ",", 51, ",", 52, ",", 53, ",", 54, ",", 55, ",", 56, ",", 57, ",", 58, ",", 59, ",", 60, ",", 61, ",", 62, ",", 63, ",", 64, ",", 65, ",", 66, ",", 67, ",", 68, ",", 69, ",", 70, ",", 71, ",", 72, ",", 73, ",", 74, ",", 75, ",", 76, ",", 77, ",", 78, ",", 79, ",", 80, ",", 81, ",", 82, ",", 83, ",", 84, ",", 85, ",", 86, ",", 87, ",", 88, ",", 89, ",", 90, ",", 91, ",", 92, ",", 93, ",", 94, ",", 95, ",", 96, ",", 97, ",", 98, ",", 99, ",", 100, ",", 101, ",", 102, ",", 103, ",", 104, ",", 105, ",", 106, ",", 107, ",", 108, ",", 109, ",", 110, ",", 111, ",", 112, ",", 113, ",", 114, ",", 115, ",", 116, ",", 117, ",", 118, ",", 119, ",", 120, ",", 121, ",", 122, ",", 123, ",", 124, ",", 125, ",", 126, ",", 127 ],
					"maxclass" : "umenu",
					"numinlets" : 1,
					"numoutlets" : 3,
					"outlettype" : [ "int", "", "" ],
					"parameter_enable" : 0,
					"patching_rect" : [ 150.587494451552629, 136.666645924250474, 29.0, 21.0 ],
					"pattrmode" : 1,
					"presentation" : 1,
					"presentation_rect" : [ 77.833328564961676, 83.066675643126018, 29.0, 21.0 ],
					"textcolor" : [ 0.16078431372549, 0.16078431372549, 0.16078431372549, 1.0 ],
					"textjustification" : 1,
					"varname" : "CCinput[8]"
				}

			}
, 			{
				"box" : 				{
					"align" : 1,
					"arrow" : 0,
					"bgcolor" : [ 0.850980392156863, 0.290196078431373, 0.470588235294118, 1.0 ],
					"bgfillcolor_angle" : 270.0,
					"bgfillcolor_autogradient" : 0.0,
					"bgfillcolor_color" : [ 0.850980392156863, 0.290196078431373, 0.470588235294118, 1.0 ],
					"bgfillcolor_color1" : [ 0.850980392156863, 0.713725490196078, 0.290196078431373, 1.0 ],
					"bgfillcolor_color2" : [ 0.2, 0.2, 0.2, 1.0 ],
					"bgfillcolor_proportion" : 0.5,
					"bgfillcolor_type" : "color",
					"fontface" : 1,
					"fontname" : "Consolas",
					"fontsize" : 11.0,
					"id" : "obj-48",
					"items" : [ 1, ",", 2, ",", 3, ",", 4, ",", 5, ",", 6, ",", 7, ",", 8, ",", 9, ",", 10, ",", 11, ",", 12, ",", 13, ",", 14, ",", 15, ",", 16, ",", 17, ",", 18, ",", 19, ",", 20, ",", 21, ",", 22, ",", 23, ",", 24, ",", 25, ",", 26, ",", 27, ",", 28, ",", 29, ",", 30, ",", 31, ",", 32, ",", 33, ",", 34, ",", 35, ",", 36, ",", 37, ",", 38, ",", 39, ",", 40, ",", 41, ",", 42, ",", 43, ",", 44, ",", 45, ",", 46, ",", 47, ",", 48, ",", 49, ",", 50, ",", 51, ",", 52, ",", 53, ",", 54, ",", 55, ",", 56, ",", 57, ",", 58, ",", 59, ",", 60, ",", 61, ",", 62, ",", 63, ",", 64, ",", 65, ",", 66, ",", 67, ",", 68, ",", 69, ",", 70, ",", 71, ",", 72, ",", 73, ",", 74, ",", 75, ",", 76, ",", 77, ",", 78, ",", 79, ",", 80, ",", 81, ",", 82, ",", 83, ",", 84, ",", 85, ",", 86, ",", 87, ",", 88, ",", 89, ",", 90, ",", 91, ",", 92, ",", 93, ",", 94, ",", 95, ",", 96, ",", 97, ",", 98, ",", 99, ",", 100, ",", 101, ",", 102, ",", 103, ",", 104, ",", 105, ",", 106, ",", 107, ",", 108, ",", 109, ",", 110, ",", 111, ",", 112, ",", 113, ",", 114, ",", 115, ",", 116, ",", 117, ",", 118, ",", 119, ",", 120, ",", 121, ",", 122, ",", 123, ",", 124, ",", 125, ",", 126, ",", 127 ],
					"maxclass" : "umenu",
					"numinlets" : 1,
					"numoutlets" : 3,
					"outlettype" : [ "int", "", "" ],
					"parameter_enable" : 0,
					"patching_rect" : [ 180.749994610746683, 136.666645924250474, 29.0, 21.0 ],
					"pattrmode" : 1,
					"presentation" : 1,
					"presentation_rect" : [ 171.21665702263499, 83.066675643126018, 29.0, 21.0 ],
					"textcolor" : [ 0.16078431372549, 0.16078431372549, 0.16078431372549, 1.0 ],
					"textjustification" : 1,
					"varname" : "CCinput[7]"
				}

			}
, 			{
				"box" : 				{
					"align" : 1,
					"arrow" : 0,
					"bgcolor" : [ 0.850980392156863, 0.290196078431373, 0.470588235294118, 1.0 ],
					"bgfillcolor_angle" : 270.0,
					"bgfillcolor_autogradient" : 0.0,
					"bgfillcolor_color" : [ 0.850980392156863, 0.290196078431373, 0.470588235294118, 1.0 ],
					"bgfillcolor_color1" : [ 0.850980392156863, 0.713725490196078, 0.290196078431373, 1.0 ],
					"bgfillcolor_color2" : [ 0.2, 0.2, 0.2, 1.0 ],
					"bgfillcolor_proportion" : 0.5,
					"bgfillcolor_type" : "color",
					"fontface" : 1,
					"fontname" : "Consolas",
					"fontsize" : 11.0,
					"id" : "obj-2",
					"items" : [ 1, ",", 2, ",", 3, ",", 4, ",", 5, ",", 6, ",", 7, ",", 8, ",", 9, ",", 10, ",", 11, ",", 12, ",", 13, ",", 14, ",", 15, ",", 16, ",", 17, ",", 18, ",", 19, ",", 20, ",", 21, ",", 22, ",", 23, ",", 24, ",", 25, ",", 26, ",", 27, ",", 28, ",", 29, ",", 30, ",", 31, ",", 32, ",", 33, ",", 34, ",", 35, ",", 36, ",", 37, ",", 38, ",", 39, ",", 40, ",", 41, ",", 42, ",", 43, ",", 44, ",", 45, ",", 46, ",", 47, ",", 48, ",", 49, ",", 50, ",", 51, ",", 52, ",", 53, ",", 54, ",", 55, ",", 56, ",", 57, ",", 58, ",", 59, ",", 60, ",", 61, ",", 62, ",", 63, ",", 64, ",", 65, ",", 66, ",", 67, ",", 68, ",", 69, ",", 70, ",", 71, ",", 72, ",", 73, ",", 74, ",", 75, ",", 76, ",", 77, ",", 78, ",", 79, ",", 80, ",", 81, ",", 82, ",", 83, ",", 84, ",", 85, ",", 86, ",", 87, ",", 88, ",", 89, ",", 90, ",", 91, ",", 92, ",", 93, ",", 94, ",", 95, ",", 96, ",", 97, ",", 98, ",", 99, ",", 100, ",", 101, ",", 102, ",", 103, ",", 104, ",", 105, ",", 106, ",", 107, ",", 108, ",", 109, ",", 110, ",", 111, ",", 112, ",", 113, ",", 114, ",", 115, ",", 116, ",", 117, ",", 118, ",", 119, ",", 120, ",", 121, ",", 122, ",", 123, ",", 124, ",", 125, ",", 126, ",", 127 ],
					"maxclass" : "umenu",
					"numinlets" : 1,
					"numoutlets" : 3,
					"outlettype" : [ "int", "", "" ],
					"parameter_enable" : 0,
					"patching_rect" : [ 210.912494769940793, 136.666645924250474, 29.0, 21.0 ],
					"pattrmode" : 1,
					"presentation" : 1,
					"presentation_rect" : [ 264.96665702263499, 83.066675643126018, 29.0, 21.0 ],
					"textcolor" : [ 0.16078431372549, 0.16078431372549, 0.16078431372549, 1.0 ],
					"textjustification" : 1,
					"varname" : "CCinput[6]"
				}

			}
, 			{
				"box" : 				{
					"align" : 1,
					"arrow" : 0,
					"bgcolor" : [ 0.850980392156863, 0.290196078431373, 0.470588235294118, 1.0 ],
					"bgfillcolor_angle" : 270.0,
					"bgfillcolor_autogradient" : 0.0,
					"bgfillcolor_color" : [ 0.850980392156863, 0.290196078431373, 0.470588235294118, 1.0 ],
					"bgfillcolor_color1" : [ 0.850980392156863, 0.713725490196078, 0.290196078431373, 1.0 ],
					"bgfillcolor_color2" : [ 0.2, 0.2, 0.2, 1.0 ],
					"bgfillcolor_proportion" : 0.5,
					"bgfillcolor_type" : "color",
					"fontface" : 1,
					"fontname" : "Consolas",
					"fontsize" : 11.0,
					"id" : "obj-45",
					"items" : [ 1, ",", 2, ",", 3, ",", 4, ",", 5, ",", 6, ",", 7, ",", 8, ",", 9, ",", 10, ",", 11, ",", 12, ",", 13, ",", 14, ",", 15, ",", 16, ",", 17, ",", 18, ",", 19, ",", 20, ",", 21, ",", 22, ",", 23, ",", 24, ",", 25, ",", 26, ",", 27, ",", 28, ",", 29, ",", 30, ",", 31, ",", 32, ",", 33, ",", 34, ",", 35, ",", 36, ",", 37, ",", 38, ",", 39, ",", 40, ",", 41, ",", 42, ",", 43, ",", 44, ",", 45, ",", 46, ",", 47, ",", 48, ",", 49, ",", 50, ",", 51, ",", 52, ",", 53, ",", 54, ",", 55, ",", 56, ",", 57, ",", 58, ",", 59, ",", 60, ",", 61, ",", 62, ",", 63, ",", 64, ",", 65, ",", 66, ",", 67, ",", 68, ",", 69, ",", 70, ",", 71, ",", 72, ",", 73, ",", 74, ",", 75, ",", 76, ",", 77, ",", 78, ",", 79, ",", 80, ",", 81, ",", 82, ",", 83, ",", 84, ",", 85, ",", 86, ",", 87, ",", 88, ",", 89, ",", 90, ",", 91, ",", 92, ",", 93, ",", 94, ",", 95, ",", 96, ",", 97, ",", 98, ",", 99, ",", 100, ",", 101, ",", 102, ",", 103, ",", 104, ",", 105, ",", 106, ",", 107, ",", 108, ",", 109, ",", 110, ",", 111, ",", 112, ",", 113, ",", 114, ",", 115, ",", 116, ",", 117, ",", 118, ",", 119, ",", 120, ",", 121, ",", 122, ",", 123, ",", 124, ",", 125, ",", 126, ",", 127 ],
					"maxclass" : "umenu",
					"numinlets" : 1,
					"numoutlets" : 3,
					"outlettype" : [ "int", "", "" ],
					"parameter_enable" : 0,
					"patching_rect" : [ 241.074994929134846, 136.666645924250474, 29.0, 21.0 ],
					"pattrmode" : 1,
					"presentation" : 1,
					"presentation_rect" : [ 359.21665702263499, 83.066675643126018, 29.0, 21.0 ],
					"textcolor" : [ 0.16078431372549, 0.16078431372549, 0.16078431372549, 1.0 ],
					"textjustification" : 1,
					"varname" : "CCinput[5]"
				}

			}
, 			{
				"box" : 				{
					"align" : 1,
					"arrow" : 0,
					"bgcolor" : [ 0.850980392156863, 0.290196078431373, 0.470588235294118, 1.0 ],
					"bgfillcolor_angle" : 270.0,
					"bgfillcolor_autogradient" : 0.0,
					"bgfillcolor_color" : [ 0.850980392156863, 0.290196078431373, 0.470588235294118, 1.0 ],
					"bgfillcolor_color1" : [ 0.850980392156863, 0.713725490196078, 0.290196078431373, 1.0 ],
					"bgfillcolor_color2" : [ 0.2, 0.2, 0.2, 1.0 ],
					"bgfillcolor_proportion" : 0.5,
					"bgfillcolor_type" : "color",
					"fontface" : 1,
					"fontname" : "Consolas",
					"fontsize" : 11.0,
					"id" : "obj-44",
					"items" : [ 1, ",", 2, ",", 3, ",", 4, ",", 5, ",", 6, ",", 7, ",", 8, ",", 9, ",", 10, ",", 11, ",", 12, ",", 13, ",", 14, ",", 15, ",", 16, ",", 17, ",", 18, ",", 19, ",", 20, ",", 21, ",", 22, ",", 23, ",", 24, ",", 25, ",", 26, ",", 27, ",", 28, ",", 29, ",", 30, ",", 31, ",", 32, ",", 33, ",", 34, ",", 35, ",", 36, ",", 37, ",", 38, ",", 39, ",", 40, ",", 41, ",", 42, ",", 43, ",", 44, ",", 45, ",", 46, ",", 47, ",", 48, ",", 49, ",", 50, ",", 51, ",", 52, ",", 53, ",", 54, ",", 55, ",", 56, ",", 57, ",", 58, ",", 59, ",", 60, ",", 61, ",", 62, ",", 63, ",", 64, ",", 65, ",", 66, ",", 67, ",", 68, ",", 69, ",", 70, ",", 71, ",", 72, ",", 73, ",", 74, ",", 75, ",", 76, ",", 77, ",", 78, ",", 79, ",", 80, ",", 81, ",", 82, ",", 83, ",", 84, ",", 85, ",", 86, ",", 87, ",", 88, ",", 89, ",", 90, ",", 91, ",", 92, ",", 93, ",", 94, ",", 95, ",", 96, ",", 97, ",", 98, ",", 99, ",", 100, ",", 101, ",", 102, ",", 103, ",", 104, ",", 105, ",", 106, ",", 107, ",", 108, ",", 109, ",", 110, ",", 111, ",", 112, ",", 113, ",", 114, ",", 115, ",", 116, ",", 117, ",", 118, ",", 119, ",", 120, ",", 121, ",", 122, ",", 123, ",", 124, ",", 125, ",", 126, ",", 127 ],
					"maxclass" : "umenu",
					"numinlets" : 1,
					"numoutlets" : 3,
					"outlettype" : [ "int", "", "" ],
					"parameter_enable" : 0,
					"patching_rect" : [ 271.237495088328842, 136.666645924250474, 29.0, 21.0 ],
					"pattrmode" : 1,
					"presentation" : 1,
					"presentation_rect" : [ 77.833328564961676, 175.599994480609837, 29.0, 21.0 ],
					"textcolor" : [ 0.16078431372549, 0.16078431372549, 0.16078431372549, 1.0 ],
					"textjustification" : 1,
					"varname" : "CCinput[4]"
				}

			}
, 			{
				"box" : 				{
					"align" : 1,
					"arrow" : 0,
					"bgcolor" : [ 0.850980392156863, 0.290196078431373, 0.470588235294118, 1.0 ],
					"bgfillcolor_angle" : 270.0,
					"bgfillcolor_autogradient" : 0.0,
					"bgfillcolor_color" : [ 0.850980392156863, 0.290196078431373, 0.470588235294118, 1.0 ],
					"bgfillcolor_color1" : [ 0.850980392156863, 0.713725490196078, 0.290196078431373, 1.0 ],
					"bgfillcolor_color2" : [ 0.2, 0.2, 0.2, 1.0 ],
					"bgfillcolor_proportion" : 0.5,
					"bgfillcolor_type" : "color",
					"fontface" : 1,
					"fontname" : "Consolas",
					"fontsize" : 11.0,
					"id" : "obj-43",
					"items" : [ 1, ",", 2, ",", 3, ",", 4, ",", 5, ",", 6, ",", 7, ",", 8, ",", 9, ",", 10, ",", 11, ",", 12, ",", 13, ",", 14, ",", 15, ",", 16, ",", 17, ",", 18, ",", 19, ",", 20, ",", 21, ",", 22, ",", 23, ",", 24, ",", 25, ",", 26, ",", 27, ",", 28, ",", 29, ",", 30, ",", 31, ",", 32, ",", 33, ",", 34, ",", 35, ",", 36, ",", 37, ",", 38, ",", 39, ",", 40, ",", 41, ",", 42, ",", 43, ",", 44, ",", 45, ",", 46, ",", 47, ",", 48, ",", 49, ",", 50, ",", 51, ",", 52, ",", 53, ",", 54, ",", 55, ",", 56, ",", 57, ",", 58, ",", 59, ",", 60, ",", 61, ",", 62, ",", 63, ",", 64, ",", 65, ",", 66, ",", 67, ",", 68, ",", 69, ",", 70, ",", 71, ",", 72, ",", 73, ",", 74, ",", 75, ",", 76, ",", 77, ",", 78, ",", 79, ",", 80, ",", 81, ",", 82, ",", 83, ",", 84, ",", 85, ",", 86, ",", 87, ",", 88, ",", 89, ",", 90, ",", 91, ",", 92, ",", 93, ",", 94, ",", 95, ",", 96, ",", 97, ",", 98, ",", 99, ",", 100, ",", 101, ",", 102, ",", 103, ",", 104, ",", 105, ",", 106, ",", 107, ",", 108, ",", 109, ",", 110, ",", 111, ",", 112, ",", 113, ",", 114, ",", 115, ",", 116, ",", 117, ",", 118, ",", 119, ",", 120, ",", 121, ",", 122, ",", 123, ",", 124, ",", 125, ",", 126, ",", 127 ],
					"maxclass" : "umenu",
					"numinlets" : 1,
					"numoutlets" : 3,
					"outlettype" : [ "int", "", "" ],
					"parameter_enable" : 0,
					"patching_rect" : [ 301.399995247523066, 136.666645924250474, 29.0, 21.0 ],
					"pattrmode" : 1,
					"presentation" : 1,
					"presentation_rect" : [ 171.21665702263499, 175.599994480609837, 29.0, 21.0 ],
					"textcolor" : [ 0.16078431372549, 0.16078431372549, 0.16078431372549, 1.0 ],
					"textjustification" : 1,
					"varname" : "CCinput[3]"
				}

			}
, 			{
				"box" : 				{
					"align" : 1,
					"arrow" : 0,
					"bgcolor" : [ 0.850980392156863, 0.290196078431373, 0.470588235294118, 1.0 ],
					"bgfillcolor_angle" : 270.0,
					"bgfillcolor_autogradient" : 0.0,
					"bgfillcolor_color" : [ 0.850980392156863, 0.290196078431373, 0.470588235294118, 1.0 ],
					"bgfillcolor_color1" : [ 0.850980392156863, 0.713725490196078, 0.290196078431373, 1.0 ],
					"bgfillcolor_color2" : [ 0.2, 0.2, 0.2, 1.0 ],
					"bgfillcolor_proportion" : 0.5,
					"bgfillcolor_type" : "color",
					"fontface" : 1,
					"fontname" : "Consolas",
					"fontsize" : 11.0,
					"id" : "obj-40",
					"items" : [ 1, ",", 2, ",", 3, ",", 4, ",", 5, ",", 6, ",", 7, ",", 8, ",", 9, ",", 10, ",", 11, ",", 12, ",", 13, ",", 14, ",", 15, ",", 16, ",", 17, ",", 18, ",", 19, ",", 20, ",", 21, ",", 22, ",", 23, ",", 24, ",", 25, ",", 26, ",", 27, ",", 28, ",", 29, ",", 30, ",", 31, ",", 32, ",", 33, ",", 34, ",", 35, ",", 36, ",", 37, ",", 38, ",", 39, ",", 40, ",", 41, ",", 42, ",", 43, ",", 44, ",", 45, ",", 46, ",", 47, ",", 48, ",", 49, ",", 50, ",", 51, ",", 52, ",", 53, ",", 54, ",", 55, ",", 56, ",", 57, ",", 58, ",", 59, ",", 60, ",", 61, ",", 62, ",", 63, ",", 64, ",", 65, ",", 66, ",", 67, ",", 68, ",", 69, ",", 70, ",", 71, ",", 72, ",", 73, ",", 74, ",", 75, ",", 76, ",", 77, ",", 78, ",", 79, ",", 80, ",", 81, ",", 82, ",", 83, ",", 84, ",", 85, ",", 86, ",", 87, ",", 88, ",", 89, ",", 90, ",", 91, ",", 92, ",", 93, ",", 94, ",", 95, ",", 96, ",", 97, ",", 98, ",", 99, ",", 100, ",", 101, ",", 102, ",", 103, ",", 104, ",", 105, ",", 106, ",", 107, ",", 108, ",", 109, ",", 110, ",", 111, ",", 112, ",", 113, ",", 114, ",", 115, ",", 116, ",", 117, ",", 118, ",", 119, ",", 120, ",", 121, ",", 122, ",", 123, ",", 124, ",", 125, ",", 126, ",", 127 ],
					"maxclass" : "umenu",
					"numinlets" : 1,
					"numoutlets" : 3,
					"outlettype" : [ "int", "", "" ],
					"parameter_enable" : 0,
					"patching_rect" : [ 331.562495406717062, 136.666645924250474, 29.0, 21.0 ],
					"pattrmode" : 1,
					"presentation" : 1,
					"presentation_rect" : [ 264.96665702263499, 175.599994480609837, 29.0, 21.0 ],
					"textcolor" : [ 0.16078431372549, 0.16078431372549, 0.16078431372549, 1.0 ],
					"textjustification" : 1,
					"varname" : "CCinput[2]"
				}

			}
, 			{
				"box" : 				{
					"align" : 1,
					"arrow" : 0,
					"bgcolor" : [ 0.850980392156863, 0.290196078431373, 0.470588235294118, 1.0 ],
					"bgfillcolor_angle" : 270.0,
					"bgfillcolor_autogradient" : 0.0,
					"bgfillcolor_color" : [ 0.850980392156863, 0.290196078431373, 0.470588235294118, 1.0 ],
					"bgfillcolor_color1" : [ 0.850980392156863, 0.713725490196078, 0.290196078431373, 1.0 ],
					"bgfillcolor_color2" : [ 0.2, 0.2, 0.2, 1.0 ],
					"bgfillcolor_proportion" : 0.5,
					"bgfillcolor_type" : "color",
					"fontface" : 1,
					"fontname" : "Consolas",
					"fontsize" : 11.0,
					"id" : "obj-37",
					"items" : [ 1, ",", 2, ",", 3, ",", 4, ",", 5, ",", 6, ",", 7, ",", 8, ",", 9, ",", 10, ",", 11, ",", 12, ",", 13, ",", 14, ",", 15, ",", 16, ",", 17, ",", 18, ",", 19, ",", 20, ",", 21, ",", 22, ",", 23, ",", 24, ",", 25, ",", 26, ",", 27, ",", 28, ",", 29, ",", 30, ",", 31, ",", 32, ",", 33, ",", 34, ",", 35, ",", 36, ",", 37, ",", 38, ",", 39, ",", 40, ",", 41, ",", 42, ",", 43, ",", 44, ",", 45, ",", 46, ",", 47, ",", 48, ",", 49, ",", 50, ",", 51, ",", 52, ",", 53, ",", 54, ",", 55, ",", 56, ",", 57, ",", 58, ",", 59, ",", 60, ",", 61, ",", 62, ",", 63, ",", 64, ",", 65, ",", 66, ",", 67, ",", 68, ",", 69, ",", 70, ",", 71, ",", 72, ",", 73, ",", 74, ",", 75, ",", 76, ",", 77, ",", 78, ",", 79, ",", 80, ",", 81, ",", 82, ",", 83, ",", 84, ",", 85, ",", 86, ",", 87, ",", 88, ",", 89, ",", 90, ",", 91, ",", 92, ",", 93, ",", 94, ",", 95, ",", 96, ",", 97, ",", 98, ",", 99, ",", 100, ",", 101, ",", 102, ",", 103, ",", 104, ",", 105, ",", 106, ",", 107, ",", 108, ",", 109, ",", 110, ",", 111, ",", 112, ",", 113, ",", 114, ",", 115, ",", 116, ",", 117, ",", 118, ",", 119, ",", 120, ",", 121, ",", 122, ",", 123, ",", 124, ",", 125, ",", 126, ",", 127 ],
					"maxclass" : "umenu",
					"numinlets" : 1,
					"numoutlets" : 3,
					"outlettype" : [ "int", "", "" ],
					"parameter_enable" : 0,
					"patching_rect" : [ 361.724995565911058, 136.666645924250474, 29.0, 21.0 ],
					"pattrmode" : 1,
					"presentation" : 1,
					"presentation_rect" : [ 359.21665702263499, 175.599994480609837, 29.0, 21.0 ],
					"textcolor" : [ 0.16078431372549, 0.16078431372549, 0.16078431372549, 1.0 ],
					"textjustification" : 1,
					"varname" : "CCinput[1]"
				}

			}
, 			{
				"box" : 				{
					"bgcolor" : [ 0.290196078431373, 0.850980392156863, 0.670588235294118, 1.0 ],
					"blinkcolor" : [ 0.815686274509804, 0.815686274509804, 0.815686274509804, 1.0 ],
					"id" : "obj-1",
					"maxclass" : "button",
					"numinlets" : 1,
					"numoutlets" : 1,
					"outlettype" : [ "bang" ],
					"outlinecolor" : [ 0.231372549019608, 0.231372549019608, 0.231372549019608, 1.0 ],
					"parameter_enable" : 0,
					"patching_rect" : [ 556.799926131963844, 329.666658202807184, 41.599994421005249, 41.599994421005249 ],
					"presentation" : 1,
					"presentation_rect" : [ 331.71665702263499, 144.433323045571456, 84.0, 84.0 ]
				}

			}
, 			{
				"box" : 				{
					"bgcolor" : [ 0.290196078431373, 0.850980392156863, 0.670588235294118, 1.0 ],
					"blinkcolor" : [ 0.815686274509804, 0.815686274509804, 0.815686274509804, 1.0 ],
					"id" : "obj-31",
					"maxclass" : "button",
					"numinlets" : 1,
					"numoutlets" : 1,
					"outlettype" : [ "bang" ],
					"outlinecolor" : [ 0.231372549019608, 0.231372549019608, 0.231372549019608, 1.0 ],
					"parameter_enable" : 0,
					"patching_rect" : [ 383.703245465594364, 329.666658202807184, 41.599994421005249, 41.599994421005249 ],
					"presentation" : 1,
					"presentation_rect" : [ 237.96665702263499, 144.433323045571456, 83.333342870076763, 83.333342870076763 ]
				}

			}
, 			{
				"box" : 				{
					"bgcolor" : [ 0.290196078431373, 0.850980392156863, 0.670588235294118, 1.0 ],
					"blinkcolor" : [ 0.815686274509804, 0.815686274509804, 0.815686274509804, 1.0 ],
					"id" : "obj-27",
					"maxclass" : "button",
					"numinlets" : 1,
					"numoutlets" : 1,
					"outlettype" : [ "bang" ],
					"outlinecolor" : [ 0.231372549019608, 0.231372549019608, 0.231372549019608, 1.0 ],
					"parameter_enable" : 0,
					"patching_rect" : [ 210.937497877826218, 329.666658202807184, 41.599994421005249, 41.599994421005249 ],
					"presentation" : 1,
					"presentation_rect" : [ 144.21665702263499, 144.433323045571456, 83.333342870076763, 83.333342870076763 ]
				}

			}
, 			{
				"box" : 				{
					"bgcolor" : [ 0.290196078431373, 0.850980392156863, 0.670588235294118, 1.0 ],
					"blinkcolor" : [ 0.815686274509804, 0.815686274509804, 0.815686274509804, 1.0 ],
					"id" : "obj-26",
					"maxclass" : "button",
					"numinlets" : 1,
					"numoutlets" : 1,
					"outlettype" : [ "bang" ],
					"outlinecolor" : [ 0.231372549019608, 0.231372549019608, 0.231372549019608, 1.0 ],
					"parameter_enable" : 0,
					"patching_rect" : [ 34.799996763467732, 329.666658202807184, 41.599994421005249, 41.599994421005249 ],
					"presentation" : 1,
					"presentation_rect" : [ 50.666657129923351, 144.433323045571456, 83.333342870076649, 83.333342870076763 ]
				}

			}
, 			{
				"box" : 				{
					"bgcolor" : [ 0.290196078431373, 0.850980392156863, 0.670588235294118, 1.0 ],
					"blinkcolor" : [ 0.815686274509804, 0.815686274509804, 0.815686274509804, 1.0 ],
					"id" : "obj-23",
					"maxclass" : "button",
					"numinlets" : 1,
					"numoutlets" : 1,
					"outlettype" : [ "bang" ],
					"outlinecolor" : [ 0.231372549019608, 0.231372549019608, 0.231372549019608, 1.0 ],
					"parameter_enable" : 0,
					"patching_rect" : [ 556.125765485600823, 235.666658202807184, 41.599994421005249, 41.599994421005249 ],
					"presentation" : 1,
					"presentation_rect" : [ 331.71665702263499, 51.900004208087694, 84.0, 83.0 ]
				}

			}
, 			{
				"box" : 				{
					"bgcolor" : [ 0.290196078431373, 0.850980392156863, 0.670588235294118, 1.0 ],
					"blinkcolor" : [ 0.815686274509804, 0.815686274509804, 0.815686274509804, 1.0 ],
					"id" : "obj-17",
					"maxclass" : "button",
					"numinlets" : 1,
					"numoutlets" : 1,
					"outlettype" : [ "bang" ],
					"outlinecolor" : [ 0.231372549019608, 0.231372549019608, 0.231372549019608, 1.0 ],
					"parameter_enable" : 0,
					"patching_rect" : [ 383.103251044589115, 235.666658202807184, 41.599994421005249, 41.599994421005249 ],
					"presentation" : 1,
					"presentation_rect" : [ 237.96665702263499, 51.900004208087694, 83.0, 83.0 ]
				}

			}
, 			{
				"box" : 				{
					"bgcolor" : [ 0.290196078431373, 0.850980392156863, 0.670588235294118, 1.0 ],
					"blinkcolor" : [ 0.815686274509804, 0.815686274509804, 0.815686274509804, 1.0 ],
					"id" : "obj-16",
					"maxclass" : "button",
					"numinlets" : 1,
					"numoutlets" : 1,
					"outlettype" : [ "bang" ],
					"outlinecolor" : [ 0.231372549019608, 0.231372549019608, 0.231372549019608, 1.0 ],
					"parameter_enable" : 0,
					"patching_rect" : [ 208.937497877826218, 235.666658202807184, 41.599994421005249, 41.599994421005249 ],
					"presentation" : 1,
					"presentation_rect" : [ 144.21665702263499, 51.900004208087694, 83.0, 83.0 ]
				}

			}
, 			{
				"box" : 				{
					"bgcolor" : [ 0.290196078431373, 0.850980392156863, 0.670588235294118, 1.0 ],
					"blinkcolor" : [ 0.815686274509804, 0.815686274509804, 0.815686274509804, 1.0 ],
					"id" : "obj-14",
					"maxclass" : "button",
					"numinlets" : 1,
					"numoutlets" : 1,
					"outlettype" : [ "bang" ],
					"outlinecolor" : [ 0.231372549019608, 0.231372549019608, 0.231372549019608, 1.0 ],
					"parameter_enable" : 0,
					"patching_rect" : [ 35.099993973970413, 235.666658202807184, 41.599994421005249, 41.599994421005249 ],
					"presentation" : 1,
					"presentation_rect" : [ 50.666657129923351, 51.900004208087694, 83.333342870076649, 83.333342870076649 ]
				}

			}
, 			{
				"box" : 				{
					"id" : "obj-302",
					"maxclass" : "newobj",
					"numinlets" : 0,
					"numoutlets" : 1,
					"outlettype" : [ "" ],
					"patching_rect" : [ 60.099993973970413, 99.666658202807184, 61.0, 22.0 ],
					"text" : "r ctrll_tggl"
				}

			}
, 			{
				"box" : 				{
					"id" : "obj-299",
					"maxclass" : "newobj",
					"numinlets" : 2,
					"numoutlets" : 1,
					"outlettype" : [ "" ],
					"patching_rect" : [ 113.200000107288361, 136.666645924250474, 32.0, 22.0 ],
					"text" : "gate"
				}

			}
, 			{
				"box" : 				{
					"id" : "obj-90",
					"items" : [ "CC", 0, ",", "CC", 1, ",", "CC", 2, ",", "CC", 3, ",", "CC", 4, ",", "CC", 5, ",", "CC", 6, ",", "CC", 7, ",", "CC", 8, ",", "CC", 9, ",", "CC", 10, ",", "CC", 11, ",", "CC", 12, ",", "CC", 13, ",", "CC", 14, ",", "CC", 15, ",", "CC", 16, ",", "CC", 17, ",", "CC", 18, ",", "CC", 19, ",", "CC", 20, ",", "CC", 21, ",", "CC", 22, ",", "CC", 23, ",", "CC", 24, ",", "CC", 25, ",", "CC", 26, ",", "CC", 27, ",", "CC", 28, ",", "CC", 29, ",", "CC", 30, ",", "CC", 31, ",", "CC", 32, ",", "CC", 33, ",", "CC", 34, ",", "CC", 35, ",", "CC", 36, ",", "CC", 37, ",", "CC", 38, ",", "CC", 39, ",", "CC", 40, ",", "CC", 41, ",", "CC", 42, ",", "CC", 43, ",", "CC", 44, ",", "CC", 45, ",", "CC", 46, ",", "CC", 47, ",", "CC", 48, ",", "CC", 49, ",", "CC", 50 ],
					"maxclass" : "umenu",
					"numinlets" : 1,
					"numoutlets" : 3,
					"outlettype" : [ "int", "", "" ],
					"parameter_enable" : 0,
					"patching_rect" : [ 657.370804770539507, 378.333336253960965, 63.0, 22.0 ],
					"pattrmode" : 1
				}

			}
, 			{
				"box" : 				{
					"id" : "obj-71",
					"items" : [ "CC", 0, ",", "CC", 1, ",", "CC", 2, ",", "CC", 3, ",", "CC", 4, ",", "CC", 5, ",", "CC", 6, ",", "CC", 7, ",", "CC", 8, ",", "CC", 9, ",", "CC", 10, ",", "CC", 11, ",", "CC", 12, ",", "CC", 13, ",", "CC", 14, ",", "CC", 15, ",", "CC", 16, ",", "CC", 17, ",", "CC", 18, ",", "CC", 19, ",", "CC", 20, ",", "CC", 21, ",", "CC", 22, ",", "CC", 23, ",", "CC", 24, ",", "CC", 25, ",", "CC", 26, ",", "CC", 27, ",", "CC", 28, ",", "CC", 29, ",", "CC", 30, ",", "CC", 31, ",", "CC", 32, ",", "CC", 33, ",", "CC", 34, ",", "CC", 35, ",", "CC", 36, ",", "CC", 37, ",", "CC", 38, ",", "CC", 39, ",", "CC", 40, ",", "CC", 41, ",", "CC", 42, ",", "CC", 43, ",", "CC", 44, ",", "CC", 45, ",", "CC", 46, ",", "CC", 47, ",", "CC", 48, ",", "CC", 49, ",", "CC", 50 ],
					"maxclass" : "umenu",
					"numinlets" : 1,
					"numoutlets" : 3,
					"outlettype" : [ "int", "", "" ],
					"parameter_enable" : 0,
					"patching_rect" : [ 657.370804770539507, 282.9333155949912, 63.0, 22.0 ],
					"pattrmode" : 1
				}

			}
, 			{
				"box" : 				{
					"id" : "obj-68",
					"items" : [ "CC", 0, ",", "CC", 1, ",", "CC", 2, ",", "CC", 3, ",", "CC", 4, ",", "CC", 5, ",", "CC", 6, ",", "CC", 7, ",", "CC", 8, ",", "CC", 9, ",", "CC", 10, ",", "CC", 11, ",", "CC", 12, ",", "CC", 13, ",", "CC", 14, ",", "CC", 15, ",", "CC", 16, ",", "CC", 17, ",", "CC", 18, ",", "CC", 19, ",", "CC", 20, ",", "CC", 21, ",", "CC", 22, ",", "CC", 23, ",", "CC", 24, ",", "CC", 25, ",", "CC", 26, ",", "CC", 27, ",", "CC", 28, ",", "CC", 29, ",", "CC", 30, ",", "CC", 31, ",", "CC", 32, ",", "CC", 33, ",", "CC", 34, ",", "CC", 35, ",", "CC", 36, ",", "CC", 37, ",", "CC", 38, ",", "CC", 39, ",", "CC", 40, ",", "CC", 41, ",", "CC", 42, ",", "CC", 43, ",", "CC", 44, ",", "CC", 45, ",", "CC", 46, ",", "CC", 47, ",", "CC", 48, ",", "CC", 49, ",", "CC", 50 ],
					"maxclass" : "umenu",
					"numinlets" : 1,
					"numoutlets" : 3,
					"outlettype" : [ "int", "", "" ],
					"parameter_enable" : 0,
					"patching_rect" : [ 483.111610986736196, 282.9333155949912, 63.0, 22.0 ],
					"pattrmode" : 1
				}

			}
, 			{
				"box" : 				{
					"id" : "obj-5",
					"items" : [ "CC", 0, ",", "CC", 1, ",", "CC", 2, ",", "CC", 3, ",", "CC", 4, ",", "CC", 5, ",", "CC", 6, ",", "CC", 7, ",", "CC", 8, ",", "CC", 9, ",", "CC", 10, ",", "CC", 11, ",", "CC", 12, ",", "CC", 13, ",", "CC", 14, ",", "CC", 15, ",", "CC", 16, ",", "CC", 17, ",", "CC", 18, ",", "CC", 19, ",", "CC", 20, ",", "CC", 21, ",", "CC", 22, ",", "CC", 23, ",", "CC", 24, ",", "CC", 25, ",", "CC", 26, ",", "CC", 27, ",", "CC", 28, ",", "CC", 29, ",", "CC", 30, ",", "CC", 31, ",", "CC", 32, ",", "CC", 33, ",", "CC", 34, ",", "CC", 35, ",", "CC", 36, ",", "CC", 37, ",", "CC", 38, ",", "CC", 39, ",", "CC", 40, ",", "CC", 41, ",", "CC", 42, ",", "CC", 43, ",", "CC", 44, ",", "CC", 45, ",", "CC", 46, ",", "CC", 47, ",", "CC", 48, ",", "CC", 49, ",", "CC", 50 ],
					"maxclass" : "umenu",
					"numinlets" : 1,
					"numoutlets" : 3,
					"outlettype" : [ "int", "", "" ],
					"parameter_enable" : 0,
					"patching_rect" : [ 305.703245465594364, 284.133335073788999, 63.0, 22.0 ],
					"pattrmode" : 1
				}

			}
, 			{
				"box" : 				{
					"id" : "obj-6",
					"items" : [ "CC", 0, ",", "CC", 1, ",", "CC", 2, ",", "CC", 3, ",", "CC", 4, ",", "CC", 5, ",", "CC", 6, ",", "CC", 7, ",", "CC", 8, ",", "CC", 9, ",", "CC", 10, ",", "CC", 11, ",", "CC", 12, ",", "CC", 13, ",", "CC", 14, ",", "CC", 15, ",", "CC", 16, ",", "CC", 17, ",", "CC", 18, ",", "CC", 19, ",", "CC", 20, ",", "CC", 21, ",", "CC", 22, ",", "CC", 23, ",", "CC", 24, ",", "CC", 25, ",", "CC", 26, ",", "CC", 27, ",", "CC", 28, ",", "CC", 29, ",", "CC", 30, ",", "CC", 31, ",", "CC", 32, ",", "CC", 33, ",", "CC", 34, ",", "CC", 35, ",", "CC", 36, ",", "CC", 37, ",", "CC", 38, ",", "CC", 39, ",", "CC", 40, ",", "CC", 41, ",", "CC", 42, ",", "CC", 43, ",", "CC", 44, ",", "CC", 45, ",", "CC", 46, ",", "CC", 47, ",", "CC", 48, ",", "CC", 49, ",", "CC", 50 ],
					"maxclass" : "umenu",
					"numinlets" : 1,
					"numoutlets" : 3,
					"outlettype" : [ "int", "", "" ],
					"parameter_enable" : 0,
					"patching_rect" : [ 305.769853010413954, 378.333336253960965, 63.0, 22.0 ],
					"pattrmode" : 1
				}

			}
, 			{
				"box" : 				{
					"id" : "obj-42",
					"items" : [ "CC", 0, ",", "CC", 1, ",", "CC", 2, ",", "CC", 3, ",", "CC", 4, ",", "CC", 5, ",", "CC", 6, ",", "CC", 7, ",", "CC", 8, ",", "CC", 9, ",", "CC", 10, ",", "CC", 11, ",", "CC", 12, ",", "CC", 13, ",", "CC", 14, ",", "CC", 15, ",", "CC", 16, ",", "CC", 17, ",", "CC", 18, ",", "CC", 19, ",", "CC", 20, ",", "CC", 21, ",", "CC", 22, ",", "CC", 23, ",", "CC", 24, ",", "CC", 25, ",", "CC", 26, ",", "CC", 27, ",", "CC", 28, ",", "CC", 29, ",", "CC", 30, ",", "CC", 31, ",", "CC", 32, ",", "CC", 33, ",", "CC", 34, ",", "CC", 35, ",", "CC", 36, ",", "CC", 37, ",", "CC", 38, ",", "CC", 39, ",", "CC", 40, ",", "CC", 41, ",", "CC", 42, ",", "CC", 43, ",", "CC", 44, ",", "CC", 45, ",", "CC", 46, ",", "CC", 47, ",", "CC", 48, ",", "CC", 49, ",", "CC", 50 ],
					"maxclass" : "umenu",
					"numinlets" : 1,
					"numoutlets" : 3,
					"outlettype" : [ "int", "", "" ],
					"parameter_enable" : 0,
					"patching_rect" : [ 133.587494451552573, 284.133335073788999, 63.0, 22.0 ],
					"pattrmode" : 1
				}

			}
, 			{
				"box" : 				{
					"id" : "obj-21",
					"items" : [ "CC", 0, ",", "CC", 1, ",", "CC", 2, ",", "CC", 3, ",", "CC", 4, ",", "CC", 5, ",", "CC", 6, ",", "CC", 7, ",", "CC", 8, ",", "CC", 9, ",", "CC", 10, ",", "CC", 11, ",", "CC", 12, ",", "CC", 13, ",", "CC", 14, ",", "CC", 15, ",", "CC", 16, ",", "CC", 17, ",", "CC", 18, ",", "CC", 19, ",", "CC", 20, ",", "CC", 21, ",", "CC", 22, ",", "CC", 23, ",", "CC", 24, ",", "CC", 25, ",", "CC", 26, ",", "CC", 27, ",", "CC", 28, ",", "CC", 29, ",", "CC", 30, ",", "CC", 31, ",", "CC", 32, ",", "CC", 33, ",", "CC", 34, ",", "CC", 35, ",", "CC", 36, ",", "CC", 37, ",", "CC", 38, ",", "CC", 39, ",", "CC", 40, ",", "CC", 41, ",", "CC", 42, ",", "CC", 43, ",", "CC", 44, ",", "CC", 45, ",", "CC", 46, ",", "CC", 47, ",", "CC", 48, ",", "CC", 49, ",", "CC", 50 ],
					"maxclass" : "umenu",
					"numinlets" : 1,
					"numoutlets" : 3,
					"outlettype" : [ "int", "", "" ],
					"parameter_enable" : 0,
					"patching_rect" : [ 133.587494451552573, 378.333336253960965, 63.0, 22.0 ],
					"pattrmode" : 1
				}

			}
, 			{
				"box" : 				{
					"id" : "obj-230",
					"items" : [ "CC", 0, ",", "CC", 1, ",", "CC", 2, ",", "CC", 3, ",", "CC", 4, ",", "CC", 5, ",", "CC", 6, ",", "CC", 7, ",", "CC", 8, ",", "CC", 9, ",", "CC", 10, ",", "CC", 11, ",", "CC", 12, ",", "CC", 13, ",", "CC", 14, ",", "CC", 15, ",", "CC", 16, ",", "CC", 17, ",", "CC", 18, ",", "CC", 19, ",", "CC", 20, ",", "CC", 21, ",", "CC", 22, ",", "CC", 23, ",", "CC", 24, ",", "CC", 25, ",", "CC", 26, ",", "CC", 27, ",", "CC", 28, ",", "CC", 29, ",", "CC", 30, ",", "CC", 31, ",", "CC", 32, ",", "CC", 33, ",", "CC", 34, ",", "CC", 35, ",", "CC", 36, ",", "CC", 37, ",", "CC", 38, ",", "CC", 39, ",", "CC", 40, ",", "CC", 41, ",", "CC", 42, ",", "CC", 43, ",", "CC", 44, ",", "CC", 45, ",", "CC", 46, ",", "CC", 47, ",", "CC", 48, ",", "CC", 49, ",", "CC", 50 ],
					"maxclass" : "umenu",
					"numinlets" : 1,
					"numoutlets" : 3,
					"outlettype" : [ "int", "", "" ],
					"parameter_enable" : 0,
					"patching_rect" : [ 479.233236153920643, 378.333336253960965, 63.0, 22.0 ],
					"pattrmode" : 1
				}

			}
, 			{
				"box" : 				{
					"id" : "obj-206",
					"maxclass" : "newobj",
					"numinlets" : 2,
					"numoutlets" : 1,
					"outlettype" : [ "" ],
					"patching_rect" : [ 557.769853010413954, 378.333336253960965, 93.0, 22.0 ],
					"text" : "notebangCC 53"
				}

			}
, 			{
				"box" : 				{
					"id" : "obj-207",
					"maxclass" : "newobj",
					"numinlets" : 2,
					"numoutlets" : 1,
					"outlettype" : [ "" ],
					"patching_rect" : [ 383.703245465594364, 378.333336253960965, 93.0, 22.0 ],
					"text" : "notebangCC 52"
				}

			}
, 			{
				"box" : 				{
					"id" : "obj-208",
					"maxclass" : "newobj",
					"numinlets" : 2,
					"numoutlets" : 1,
					"outlettype" : [ "" ],
					"patching_rect" : [ 210.703245465594307, 378.333336253960965, 93.0, 22.0 ],
					"text" : "notebangCC 51"
				}

			}
, 			{
				"box" : 				{
					"id" : "obj-209",
					"maxclass" : "newobj",
					"numinlets" : 2,
					"numoutlets" : 1,
					"outlettype" : [ "" ],
					"patching_rect" : [ 34.703245465594307, 378.333336253960965, 93.0, 22.0 ],
					"text" : "notebangCC 50"
				}

			}
, 			{
				"box" : 				{
					"id" : "obj-210",
					"maxclass" : "newobj",
					"numinlets" : 2,
					"numoutlets" : 1,
					"outlettype" : [ "" ],
					"patching_rect" : [ 557.703245465594364, 284.133335073788999, 93.0, 22.0 ],
					"text" : "notebangCC 49"
				}

			}
, 			{
				"box" : 				{
					"id" : "obj-211",
					"maxclass" : "newobj",
					"numinlets" : 2,
					"numoutlets" : 1,
					"outlettype" : [ "" ],
					"patching_rect" : [ 383.703245465594364, 284.133335073788999, 93.0, 22.0 ],
					"text" : "notebangCC 48"
				}

			}
, 			{
				"box" : 				{
					"id" : "obj-212",
					"maxclass" : "newobj",
					"numinlets" : 2,
					"numoutlets" : 1,
					"outlettype" : [ "" ],
					"patching_rect" : [ 210.703245465594307, 284.133335073788999, 93.0, 22.0 ],
					"text" : "notebangCC 47"
				}

			}
, 			{
				"box" : 				{
					"id" : "obj-213",
					"maxclass" : "newobj",
					"numinlets" : 2,
					"numoutlets" : 1,
					"outlettype" : [ "" ],
					"patching_rect" : [ 34.703245465594307, 284.133335073788999, 93.0, 22.0 ],
					"text" : "notebangCC 46"
				}

			}
, 			{
				"box" : 				{
					"id" : "obj-136",
					"maxclass" : "newobj",
					"numinlets" : 2,
					"numoutlets" : 1,
					"outlettype" : [ "" ],
					"patching_rect" : [ 126.200000107288361, 99.666658202807184, 41.0, 22.0 ],
					"text" : "join 2"
				}

			}
, 			{
				"box" : 				{
					"id" : "obj-67",
					"maxclass" : "newobj",
					"numinlets" : 9,
					"numoutlets" : 9,
					"outlettype" : [ "", "", "", "", "", "", "", "", "" ],
					"patching_rect" : [ 126.200000107288361, 169.299990236759271, 169.0, 22.0 ],
					"text" : "route 46 47 48 49 50 51 52 53"
				}

			}
, 			{
				"box" : 				{
					"id" : "obj-65",
					"maxclass" : "newobj",
					"numinlets" : 0,
					"numoutlets" : 1,
					"outlettype" : [ "" ],
					"patching_rect" : [ 126.200000107288361, 33.666658202807184, 60.0, 22.0 ],
					"text" : "r indevice"
				}

			}
, 			{
				"box" : 				{
					"id" : "obj-66",
					"maxclass" : "newobj",
					"numinlets" : 1,
					"numoutlets" : 3,
					"outlettype" : [ "int", "int", "int" ],
					"patching_rect" : [ 126.200000107288361, 63.999991536140527, 41.0, 22.0 ],
					"text" : "notein"
				}

			}
, 			{
				"box" : 				{
					"id" : "obj-64",
					"maxclass" : "message",
					"numinlets" : 2,
					"numoutlets" : 1,
					"outlettype" : [ "" ],
					"patching_rect" : [ 830.0, 400.000037550925867, 33.0, 22.0 ],
					"text" : "front"
				}

			}
, 			{
				"box" : 				{
					"id" : "obj-62",
					"maxclass" : "newobj",
					"numinlets" : 2,
					"numoutlets" : 2,
					"outlettype" : [ "", "" ],
					"patching_rect" : [ 830.0, 369.133403976757791, 66.0, 22.0 ],
					"text" : "route open"
				}

			}
, 			{
				"box" : 				{
					"id" : "obj-49",
					"maxclass" : "toggle",
					"numinlets" : 1,
					"numoutlets" : 1,
					"outlettype" : [ "int" ],
					"parameter_enable" : 0,
					"patching_rect" : [ 788.0, 75.233312805493824, 24.0, 24.0 ]
				}

			}
, 			{
				"box" : 				{
					"id" : "obj-50",
					"maxclass" : "newobj",
					"numinlets" : 0,
					"numoutlets" : 1,
					"outlettype" : [ "" ],
					"patching_rect" : [ 788.0, 42.233312805493824, 86.0, 22.0 ],
					"text" : "r preset_mode"
				}

			}
, 			{
				"box" : 				{
					"id" : "obj-51",
					"maxclass" : "newobj",
					"numinlets" : 2,
					"numoutlets" : 1,
					"outlettype" : [ "int" ],
					"patching_rect" : [ 788.0, 165.999962449074133, 29.5, 22.0 ],
					"text" : "+ 1"
				}

			}
, 			{
				"box" : 				{
					"id" : "obj-52",
					"maxclass" : "newobj",
					"numinlets" : 1,
					"numoutlets" : 2,
					"outlettype" : [ "bang", "int" ],
					"patching_rect" : [ 788.0, 132.0, 29.5, 22.0 ],
					"text" : "t b i"
				}

			}
, 			{
				"box" : 				{
					"id" : "obj-53",
					"maxclass" : "newobj",
					"numinlets" : 1,
					"numoutlets" : 1,
					"outlettype" : [ "" ],
					"patching_rect" : [ 920.319003482659809, 197.0, 25.0, 22.0 ],
					"text" : "iter"
				}

			}
, 			{
				"box" : 				{
					"id" : "obj-54",
					"maxclass" : "newobj",
					"numinlets" : 2,
					"numoutlets" : 2,
					"outlettype" : [ "", "" ],
					"patching_rect" : [ 903.319003482659809, 233.633369644482741, 42.0, 22.0 ],
					"text" : "gate 2"
				}

			}
, 			{
				"box" : 				{
					"id" : "obj-55",
					"maxclass" : "message",
					"numinlets" : 2,
					"numoutlets" : 1,
					"outlettype" : [ "" ],
					"patching_rect" : [ 773.5, 283.133369644482741, 121.0, 22.0 ],
					"text" : "script sendtoback $1"
				}

			}
, 			{
				"box" : 				{
					"id" : "obj-56",
					"maxclass" : "message",
					"numinlets" : 2,
					"numoutlets" : 1,
					"outlettype" : [ "" ],
					"patching_rect" : [ 908.270787759373661, 283.133369644482741, 118.0, 22.0 ],
					"text" : "script bringtofront $1"
				}

			}
, 			{
				"box" : 				{
					"id" : "obj-57",
					"maxclass" : "newobj",
					"numinlets" : 2,
					"numoutlets" : 2,
					"outlettype" : [ "", "" ],
					"patching_rect" : [ 856.319003482659809, 158.0, 89.0, 22.0 ],
					"text" : "route attributes"
				}

			}
, 			{
				"box" : 				{
					"id" : "obj-58",
					"maxclass" : "message",
					"numinlets" : 2,
					"numoutlets" : 1,
					"outlettype" : [ "" ],
					"patching_rect" : [ 870.319003482659809, 82.0, 75.0, 22.0 ],
					"text" : "getattributes"
				}

			}
, 			{
				"box" : 				{
					"comment" : "",
					"id" : "obj-59",
					"index" : 1,
					"maxclass" : "inlet",
					"numinlets" : 0,
					"numoutlets" : 1,
					"outlettype" : [ "" ],
					"patching_rect" : [ 830.0, 333.266739288965482, 25.0, 25.0 ]
				}

			}
, 			{
				"box" : 				{
					"fontname" : "Arial",
					"fontsize" : 11.934730999999999,
					"id" : "obj-60",
					"maxclass" : "newobj",
					"numinlets" : 1,
					"numoutlets" : 2,
					"outlettype" : [ "", "" ],
					"patching_rect" : [ 773.5, 437.633369644482741, 67.0, 22.0 ],
					"save" : [ "#N", "thispatcher", ";", "#Q", "end", ";" ],
					"text" : "thispatcher"
				}

			}
, 			{
				"box" : 				{
					"comment" : "",
					"id" : "obj-38",
					"index" : 1,
					"maxclass" : "outlet",
					"numinlets" : 1,
					"numoutlets" : 0,
					"patching_rect" : [ 20.770787759373775, 528.999996781349182, 30.0, 30.0 ]
				}

			}
, 			{
				"box" : 				{
					"id" : "obj-3",
					"maxclass" : "newobj",
					"numinlets" : 1,
					"numoutlets" : 4,
					"outlettype" : [ "", "", "", "" ],
					"patching_rect" : [ 889.319003482659809, 117.233312805493824, 56.0, 22.0 ],
					"restore" : 					{
						"CCinput[1]" : [ "53" ],
						"CCinput[2]" : [ "52" ],
						"CCinput[3]" : [ "51" ],
						"CCinput[4]" : [ "50" ],
						"CCinput[5]" : [ "49" ],
						"CCinput[6]" : [ "48" ],
						"CCinput[7]" : [ "47" ],
						"CCinput[8]" : [ "46" ]
					}
,
					"text" : "autopattr",
					"varname" : "u951001353"
				}

			}
 ],
		"lines" : [ 			{
				"patchline" : 				{
					"destination" : [ "obj-206", 0 ],
					"midpoints" : [ 566.299926131963844, 371.266673366228702, 567.269853010413954, 371.266673366228702 ],
					"source" : [ "obj-1", 0 ]
				}

			}
, 			{
				"patchline" : 				{
					"destination" : [ "obj-299", 1 ],
					"source" : [ "obj-136", 0 ]
				}

			}
, 			{
				"patchline" : 				{
					"destination" : [ "obj-213", 0 ],
					"midpoints" : [ 44.599993973970413, 278.266673366228702, 44.203245465594307, 278.266673366228702 ],
					"source" : [ "obj-14", 0 ]
				}

			}
, 			{
				"patchline" : 				{
					"destination" : [ "obj-212", 0 ],
					"midpoints" : [ 218.437497877826218, 278.266673366228702, 220.203245465594307, 278.266673366228702 ],
					"source" : [ "obj-16", 0 ]
				}

			}
, 			{
				"patchline" : 				{
					"destination" : [ "obj-211", 0 ],
					"midpoints" : [ 392.603251044589115, 278.266673366228702, 393.203245465594364, 278.266673366228702 ],
					"source" : [ "obj-17", 0 ]
				}

			}
, 			{
				"patchline" : 				{
					"destination" : [ "obj-67", 3 ],
					"source" : [ "obj-2", 1 ]
				}

			}
, 			{
				"patchline" : 				{
					"destination" : [ "obj-38", 0 ],
					"midpoints" : [ 567.269853010413954, 513.0, 30.270787759373775, 513.0 ],
					"source" : [ "obj-206", 0 ]
				}

			}
, 			{
				"patchline" : 				{
					"destination" : [ "obj-38", 0 ],
					"midpoints" : [ 393.203245465594364, 513.0, 30.270787759373775, 513.0 ],
					"source" : [ "obj-207", 0 ]
				}

			}
, 			{
				"patchline" : 				{
					"destination" : [ "obj-38", 0 ],
					"midpoints" : [ 220.203245465594307, 513.0, 30.270787759373775, 513.0 ],
					"source" : [ "obj-208", 0 ]
				}

			}
, 			{
				"patchline" : 				{
					"destination" : [ "obj-38", 0 ],
					"midpoints" : [ 44.203245465594307, 513.0, 30.270787759373775, 513.0 ],
					"source" : [ "obj-209", 0 ]
				}

			}
, 			{
				"patchline" : 				{
					"destination" : [ "obj-209", 1 ],
					"midpoints" : [ 143.087494451552573, 401.266673366228702, 113.503245358306003, 401.266673366228702, 113.503245358306003, 374.266673366228702, 118.203245465594307, 374.266673366228702 ],
					"source" : [ "obj-21", 0 ]
				}

			}
, 			{
				"patchline" : 				{
					"destination" : [ "obj-38", 0 ],
					"midpoints" : [ 567.203245465594364, 309.0, 543.0, 309.0, 543.0, 513.0, 30.270787759373775, 513.0 ],
					"source" : [ "obj-210", 0 ]
				}

			}
, 			{
				"patchline" : 				{
					"destination" : [ "obj-38", 0 ],
					"midpoints" : [ 393.203245465594364, 309.0, 369.0, 309.0, 369.0, 513.0, 30.270787759373775, 513.0 ],
					"source" : [ "obj-211", 0 ]
				}

			}
, 			{
				"patchline" : 				{
					"destination" : [ "obj-38", 0 ],
					"midpoints" : [ 220.203245465594307, 309.0, 195.0, 309.0, 195.0, 363.0, 129.0, 363.0, 129.0, 513.0, 30.270787759373775, 513.0 ],
					"source" : [ "obj-212", 0 ]
				}

			}
, 			{
				"patchline" : 				{
					"destination" : [ "obj-38", 0 ],
					"midpoints" : [ 44.203245465594307, 309.0, 21.0, 309.0, 21.0, 513.0, 30.270787759373775, 513.0 ],
					"source" : [ "obj-213", 0 ]
				}

			}
, 			{
				"patchline" : 				{
					"destination" : [ "obj-67", 0 ],
					"midpoints" : [ 466.074994929134903, 201.0, 123.0, 201.0, 123.0, 165.0, 135.700000107288361, 165.0 ],
					"source" : [ "obj-216", 0 ]
				}

			}
, 			{
				"patchline" : 				{
					"destination" : [ "obj-216", 0 ],
					"midpoints" : [ 414.995799994717061, 131.033346732457602, 466.074994929134903, 131.033346732457602 ],
					"source" : [ "obj-217", 0 ]
				}

			}
, 			{
				"patchline" : 				{
					"destination" : [ "obj-210", 0 ],
					"midpoints" : [ 565.625765485600823, 278.266673366228702, 567.203245465594364, 278.266673366228702 ],
					"source" : [ "obj-23", 0 ]
				}

			}
, 			{
				"patchline" : 				{
					"destination" : [ "obj-207", 1 ],
					"midpoints" : [ 488.733236153920643, 401.266673366228702, 464.503245358306003, 401.266673366228702, 464.503245358306003, 374.266673366228702, 467.203245465594364, 374.266673366228702 ],
					"source" : [ "obj-230", 0 ]
				}

			}
, 			{
				"patchline" : 				{
					"destination" : [ "obj-259", 0 ],
					"midpoints" : [ 479.770787759373604, 59.033346732457602, 479.770787759373604, 59.033346732457602 ],
					"source" : [ "obj-257", 0 ]
				}

			}
, 			{
				"patchline" : 				{
					"destination" : [ "obj-289", 0 ],
					"midpoints" : [ 490.270787759373604, 86.033346732457602, 479.770787759373604, 86.033346732457602 ],
					"source" : [ "obj-259", 1 ]
				}

			}
, 			{
				"patchline" : 				{
					"destination" : [ "obj-289", 1 ],
					"midpoints" : [ 479.770787759373604, 86.033346732457602, 563.770787759373661, 86.033346732457602 ],
					"source" : [ "obj-259", 0 ]
				}

			}
, 			{
				"patchline" : 				{
					"destination" : [ "obj-209", 0 ],
					"midpoints" : [ 44.299996763467732, 371.266673366228702, 44.203245465594307, 371.266673366228702 ],
					"source" : [ "obj-26", 0 ]
				}

			}
, 			{
				"patchline" : 				{
					"destination" : [ "obj-208", 0 ],
					"midpoints" : [ 220.437497877826218, 371.266673366228702, 220.203245465594307, 371.266673366228702 ],
					"source" : [ "obj-27", 0 ]
				}

			}
, 			{
				"patchline" : 				{
					"destination" : [ "obj-216", 1 ],
					"midpoints" : [ 479.770787759373604, 122.033346732457602, 479.074994929134903, 122.033346732457602 ],
					"source" : [ "obj-289", 0 ]
				}

			}
, 			{
				"patchline" : 				{
					"destination" : [ "obj-67", 0 ],
					"midpoints" : [ 122.700000107288361, 166.0, 135.700000107288361, 166.0 ],
					"source" : [ "obj-299", 0 ]
				}

			}
, 			{
				"patchline" : 				{
					"destination" : [ "obj-57", 0 ],
					"source" : [ "obj-3", 3 ]
				}

			}
, 			{
				"patchline" : 				{
					"destination" : [ "obj-299", 0 ],
					"midpoints" : [ 69.599993973970413, 132.0, 122.700000107288361, 132.0 ],
					"source" : [ "obj-302", 0 ]
				}

			}
, 			{
				"patchline" : 				{
					"destination" : [ "obj-207", 0 ],
					"midpoints" : [ 393.203245465594364, 371.266673366228702, 393.203245465594364, 371.266673366228702 ],
					"source" : [ "obj-31", 0 ]
				}

			}
, 			{
				"patchline" : 				{
					"destination" : [ "obj-67", 8 ],
					"source" : [ "obj-37", 1 ]
				}

			}
, 			{
				"patchline" : 				{
					"destination" : [ "obj-67", 1 ],
					"source" : [ "obj-4", 1 ]
				}

			}
, 			{
				"patchline" : 				{
					"destination" : [ "obj-67", 7 ],
					"source" : [ "obj-40", 1 ]
				}

			}
, 			{
				"patchline" : 				{
					"destination" : [ "obj-213", 1 ],
					"midpoints" : [ 143.087494451552573, 308.266673366228702, 113.503245358306003, 308.266673366228702, 113.503245358306003, 278.266673366228702, 118.203245465594307, 278.266673366228702 ],
					"source" : [ "obj-42", 0 ]
				}

			}
, 			{
				"patchline" : 				{
					"destination" : [ "obj-67", 6 ],
					"source" : [ "obj-43", 1 ]
				}

			}
, 			{
				"patchline" : 				{
					"destination" : [ "obj-67", 5 ],
					"source" : [ "obj-44", 1 ]
				}

			}
, 			{
				"patchline" : 				{
					"destination" : [ "obj-67", 4 ],
					"source" : [ "obj-45", 1 ]
				}

			}
, 			{
				"patchline" : 				{
					"destination" : [ "obj-67", 2 ],
					"source" : [ "obj-48", 1 ]
				}

			}
, 			{
				"patchline" : 				{
					"destination" : [ "obj-52", 0 ],
					"midpoints" : [ 797.5, 100.0, 797.5, 100.0 ],
					"source" : [ "obj-49", 0 ]
				}

			}
, 			{
				"patchline" : 				{
					"destination" : [ "obj-212", 1 ],
					"midpoints" : [ 315.203245465594364, 308.266673366228702, 290.503245358306003, 308.266673366228702, 290.503245358306003, 278.266673366228702, 294.203245465594307, 278.266673366228702 ],
					"source" : [ "obj-5", 0 ]
				}

			}
, 			{
				"patchline" : 				{
					"destination" : [ "obj-49", 0 ],
					"midpoints" : [ 797.5, 67.0, 797.5, 67.0 ],
					"source" : [ "obj-50", 0 ]
				}

			}
, 			{
				"patchline" : 				{
					"destination" : [ "obj-54", 0 ],
					"midpoints" : [ 797.5, 220.0, 912.819003482659809, 220.0 ],
					"source" : [ "obj-51", 0 ]
				}

			}
, 			{
				"patchline" : 				{
					"destination" : [ "obj-51", 0 ],
					"midpoints" : [ 808.0, 157.0, 797.5, 157.0 ],
					"source" : [ "obj-52", 1 ]
				}

			}
, 			{
				"patchline" : 				{
					"destination" : [ "obj-58", 0 ],
					"midpoints" : [ 797.5, 157.0, 842.0, 157.0, 842.0, 76.0, 879.819003482659809, 76.0 ],
					"source" : [ "obj-52", 0 ]
				}

			}
, 			{
				"patchline" : 				{
					"destination" : [ "obj-54", 1 ],
					"midpoints" : [ 929.819003482659809, 226.0, 935.819003482659809, 226.0 ],
					"source" : [ "obj-53", 0 ]
				}

			}
, 			{
				"patchline" : 				{
					"destination" : [ "obj-55", 0 ],
					"midpoints" : [ 912.819003482659809, 268.0, 783.0, 268.0 ],
					"source" : [ "obj-54", 0 ]
				}

			}
, 			{
				"patchline" : 				{
					"destination" : [ "obj-56", 0 ],
					"midpoints" : [ 935.819003482659809, 268.0, 917.770787759373661, 268.0 ],
					"source" : [ "obj-54", 1 ]
				}

			}
, 			{
				"patchline" : 				{
					"destination" : [ "obj-60", 0 ],
					"midpoints" : [ 783.0, 308.0, 783.0, 308.0 ],
					"source" : [ "obj-55", 0 ]
				}

			}
, 			{
				"patchline" : 				{
					"destination" : [ "obj-60", 0 ],
					"midpoints" : [ 917.770787759373661, 317.0, 783.0, 317.0 ],
					"source" : [ "obj-56", 0 ]
				}

			}
, 			{
				"patchline" : 				{
					"destination" : [ "obj-53", 0 ],
					"midpoints" : [ 865.819003482659809, 193.0, 929.819003482659809, 193.0 ],
					"source" : [ "obj-57", 0 ]
				}

			}
, 			{
				"patchline" : 				{
					"destination" : [ "obj-3", 0 ],
					"source" : [ "obj-58", 0 ]
				}

			}
, 			{
				"patchline" : 				{
					"destination" : [ "obj-62", 0 ],
					"midpoints" : [ 839.5, 360.0, 839.5, 360.0 ],
					"source" : [ "obj-59", 0 ]
				}

			}
, 			{
				"patchline" : 				{
					"destination" : [ "obj-208", 1 ],
					"midpoints" : [ 315.269853010413954, 401.266673366228702, 290.503245358306003, 401.266673366228702, 290.503245358306003, 374.266673366228702, 294.203245465594307, 374.266673366228702 ],
					"source" : [ "obj-6", 0 ]
				}

			}
, 			{
				"patchline" : 				{
					"destination" : [ "obj-60", 0 ],
					"midpoints" : [ 886.5, 432.0, 783.0, 432.0 ],
					"source" : [ "obj-62", 1 ]
				}

			}
, 			{
				"patchline" : 				{
					"destination" : [ "obj-64", 0 ],
					"midpoints" : [ 839.5, 393.0, 839.5, 393.0 ],
					"source" : [ "obj-62", 0 ]
				}

			}
, 			{
				"patchline" : 				{
					"destination" : [ "obj-60", 0 ],
					"midpoints" : [ 839.5, 423.0, 783.0, 423.0 ],
					"source" : [ "obj-64", 0 ]
				}

			}
, 			{
				"patchline" : 				{
					"destination" : [ "obj-66", 0 ],
					"midpoints" : [ 135.700000107288361, 56.999999999999972, 135.700000107288361, 56.999999999999972 ],
					"source" : [ "obj-65", 0 ]
				}

			}
, 			{
				"patchline" : 				{
					"destination" : [ "obj-136", 1 ],
					"midpoints" : [ 146.700000107288361, 93.0, 157.700000107288361, 93.0 ],
					"source" : [ "obj-66", 1 ]
				}

			}
, 			{
				"patchline" : 				{
					"destination" : [ "obj-136", 0 ],
					"midpoints" : [ 135.700000107288361, 87.0, 135.700000107288361, 87.0 ],
					"source" : [ "obj-66", 0 ]
				}

			}
, 			{
				"patchline" : 				{
					"destination" : [ "obj-1", 0 ],
					"midpoints" : [ 266.950000107288361, 222.0, 544.0, 222.0, 544.0, 324.0, 566.299926131963844, 324.0 ],
					"source" : [ "obj-67", 7 ]
				}

			}
, 			{
				"patchline" : 				{
					"destination" : [ "obj-14", 0 ],
					"midpoints" : [ 135.700000107288361, 222.0, 44.599993973970413, 222.0 ],
					"source" : [ "obj-67", 0 ]
				}

			}
, 			{
				"patchline" : 				{
					"destination" : [ "obj-16", 0 ],
					"midpoints" : [ 154.450000107288361, 222.0, 218.437497877826218, 222.0 ],
					"source" : [ "obj-67", 1 ]
				}

			}
, 			{
				"patchline" : 				{
					"destination" : [ "obj-17", 0 ],
					"midpoints" : [ 173.200000107288361, 222.0, 392.603251044589115, 222.0 ],
					"source" : [ "obj-67", 2 ]
				}

			}
, 			{
				"patchline" : 				{
					"destination" : [ "obj-23", 0 ],
					"midpoints" : [ 191.950000107288361, 222.0, 565.625765485600823, 222.0 ],
					"source" : [ "obj-67", 3 ]
				}

			}
, 			{
				"patchline" : 				{
					"destination" : [ "obj-26", 0 ],
					"midpoints" : [ 210.700000107288361, 222.0, 19.0, 222.0, 19.0, 324.0, 44.299996763467732, 324.0 ],
					"source" : [ "obj-67", 4 ]
				}

			}
, 			{
				"patchline" : 				{
					"destination" : [ "obj-27", 0 ],
					"midpoints" : [ 229.450000107288361, 222.0, 196.0, 222.0, 196.0, 324.0, 220.437497877826218, 324.0 ],
					"source" : [ "obj-67", 5 ]
				}

			}
, 			{
				"patchline" : 				{
					"destination" : [ "obj-31", 0 ],
					"midpoints" : [ 248.200000107288361, 222.0, 370.0, 222.0, 370.0, 324.0, 393.203245465594364, 324.0 ],
					"source" : [ "obj-67", 6 ]
				}

			}
, 			{
				"patchline" : 				{
					"destination" : [ "obj-211", 1 ],
					"midpoints" : [ 492.611610986736196, 305.266673366228702, 464.503245358306003, 305.266673366228702, 464.503245358306003, 278.266673366228702, 467.203245465594364, 278.266673366228702 ],
					"source" : [ "obj-68", 0 ]
				}

			}
, 			{
				"patchline" : 				{
					"destination" : [ "obj-210", 1 ],
					"midpoints" : [ 666.870804770539507, 308.266673366228702, 638.503245358306003, 308.266673366228702, 638.503245358306003, 278.266673366228702, 641.203245465594364, 278.266673366228702 ],
					"source" : [ "obj-71", 0 ]
				}

			}
, 			{
				"patchline" : 				{
					"destination" : [ "obj-206", 1 ],
					"midpoints" : [ 666.870804770539507, 401.266673366228702, 638.503245358306003, 401.266673366228702, 638.503245358306003, 374.266673366228702, 641.269853010413954, 374.266673366228702 ],
					"source" : [ "obj-90", 0 ]
				}

			}
 ]
	}

}
